<svg width="165" height="33" viewBox="0 0 165 33" fill="none" xmlns="http://www.w3.org/2000/svg">
    <g clip-path="url(#clip0_619_52912)">
      <path d="M6.89189 19.5627H20.6971V12.9758H6.89189V7.27823H21.6571V0.691406H0.00585938V32.9998H22.1537V26.38H6.89189V19.5627Z" fill="white" />
      <path d="M97.6393 0.691617L90.2566 12.3503L82.874 0.691617H52.1517V7.27844H61.6862V26.3473H51.5558C52.0855 25.6886 52.5159 24.997 52.9131 24.2725C54.105 21.9671 54.734 19.3323 54.734 16.4671C54.734 14.1287 54.3036 11.8892 53.509 9.91317C52.6814 7.90419 51.5227 6.12575 50.066 4.67665C48.6094 3.19461 46.8547 2.04192 44.8353 1.21856C42.8489 0.39521 40.6639 0 38.3796 0C36.0953 0 33.8772 0.428144 31.8909 1.21856C29.9045 2.04192 28.1499 3.19461 26.6601 4.67665C25.2035 6.15868 24.0448 7.90419 23.2171 9.91317C22.3895 11.9222 21.9922 14.1287 21.9922 16.4671C21.9922 18.8054 22.4226 21.0449 23.2171 23.021C24.0448 25.0299 25.2035 26.8084 26.6601 28.2575C28.1168 29.7395 29.8714 30.8922 31.8909 31.7156C33.8772 32.5389 36.0622 32.9341 38.3796 32.9341H68.5723V7.24551H78.802L86.8136 19.3323V32.9341H93.6997V19.3982L106.048 0.691617H97.6393ZM46.921 20.3204C46.4906 21.506 45.8947 22.5599 45.1001 23.4491C44.3056 24.3383 43.3455 25.0629 42.2199 25.5898C41.0943 26.1168 39.8032 26.3802 38.3465 26.3802C36.8899 26.3802 35.5656 26.1168 34.44 25.5898C33.3144 25.0629 32.3212 24.3383 31.5598 23.4491C30.7653 22.5599 30.1362 21.506 29.739 20.3204C29.3086 19.1018 29.0769 17.8174 29.0769 16.4671C29.0769 15.1168 29.3086 13.8323 29.739 12.6138C30.1694 11.4281 30.7653 10.3743 31.5598 9.48503C32.3543 8.59581 33.3144 7.87126 34.44 7.34431C35.5656 6.81737 36.8899 6.55389 38.3465 6.55389C39.8032 6.55389 41.0943 6.81737 42.2199 7.34431C43.3455 7.87126 44.3387 8.59581 45.1001 9.48503C45.8947 10.3743 46.5237 11.4281 46.921 12.6138C47.3513 13.8323 47.5831 15.1168 47.5831 16.4671C47.5831 17.8174 47.3513 19.1018 46.921 20.3204Z" fill="white" />
      <path d="M130.521 2.66797L119.165 28.6201H107.578V2.66797H104.93V31.0243H120.92L124.131 23.4823H139.227L142.339 31.0243H145.319L133.335 2.66797H130.521ZM125.157 21.0782L131.812 5.53324L138.267 21.0782H125.157Z" fill="white" />
      <path d="M164.505 20.3519C164.207 19.5286 163.777 18.804 163.181 18.2112C162.618 17.6184 161.956 17.1244 161.162 16.7621C160.367 16.3998 159.539 16.1693 158.579 16.1034V16.0375C160.268 15.6753 161.559 14.9837 162.386 13.9298C163.247 12.8759 163.678 11.5914 163.678 10.1753C163.678 8.56149 163.413 7.27706 162.85 6.32197C162.287 5.33395 161.592 4.57646 160.731 4.04952C159.87 3.48964 158.877 3.12736 157.785 2.96269C156.692 2.79802 155.6 2.69922 154.54 2.69922H146.33V31.0555H155.434C156.394 31.0555 157.454 30.9567 158.546 30.7262C159.672 30.5286 160.698 30.1004 161.658 29.5405C162.618 28.9477 163.413 28.1573 164.042 27.1034C164.671 26.0825 165.002 24.7322 165.002 23.1184C164.969 22.0974 164.803 21.1753 164.505 20.3519ZM154.871 5.07048C155.699 5.07048 156.494 5.13634 157.255 5.30102C158.016 5.46569 158.679 5.72916 159.241 6.12437C159.804 6.51958 160.268 7.04652 160.599 7.67227C160.93 8.33096 161.095 9.15431 161.095 10.1423C161.095 10.6034 161.029 11.0974 160.864 11.6573C160.698 12.2172 160.367 12.7112 159.904 13.2052C159.407 13.6992 158.745 14.0944 157.884 14.4238C157.023 14.7531 155.898 14.9178 154.54 14.9178H149.012L148.979 5.07048H154.871ZM162.055 24.8639C161.89 25.4896 161.526 26.0825 161.029 26.6423C160.533 27.2022 159.771 27.6633 158.844 28.0585C157.884 28.4208 156.626 28.6184 155.07 28.6184H148.979V17.322H155.467C156.295 17.322 157.123 17.4208 157.95 17.6513C158.778 17.8489 159.506 18.2112 160.135 18.6723C160.764 19.1334 161.294 19.7591 161.691 20.4837C162.089 21.2411 162.287 22.1304 162.287 23.1513C162.32 23.6783 162.221 24.2381 162.055 24.8639Z" fill="white" />
    </g>
    <defs>
      <clipPath id="clip0_619_52912">
        <rect width="165" height="33" fill="white" />
      </clipPath>
    </defs>
  </svg>