<svg width="68" height="35" viewBox="0 0 68 35" fill="none" xmlns="http://www.w3.org/2000/svg">
<path fill-rule="evenodd" clip-rule="evenodd" d="M67.4062 34.1441C67.4062 34.1441 67.4062 34.1441 67.4062 34.1441C67.4062 15.6933 52.449 0.736083 33.9983 0.736083C15.5475 0.736082 0.590283 15.6933 0.590282 34.1441C0.590282 34.1441 0.590282 34.1441 0.590282 34.1441L22.862 34.1441C22.862 34.1441 22.862 34.1441 22.862 34.1441C22.862 27.9938 27.8478 23.0081 33.998 23.0081C40.1483 23.0081 45.134 27.9938 45.134 34.1441C45.134 34.1441 45.134 34.1441 45.134 34.1441L67.4062 34.1441Z" fill="url(#paint0_linear_2001_34)"/>
<defs>
<linearGradient id="paint0_linear_2001_34" x1="34" y1="-11.4998" x2="34" y2="30.0002" gradientUnits="userSpaceOnUse">
<stop/>
<stop offset="0.627523" stop-color="#04C48B"/>
<stop offset="1" stop-color="#04C48B" stop-opacity="0"/>
</linearGradient>
</defs>
</svg>
