<svg width="116" height="116" viewBox="0 0 116 116" fill="none" xmlns="http://www.w3.org/2000/svg">
<path fill-rule="evenodd" clip-rule="evenodd" d="M2.32 56.2598C2.32 56.2598 2.32 56.2597 2.32 56.2597C2.32 25.547 27.1863 0.642226 57.8843 0.579832L58.1156 0.579832C88.7573 0.642115 113.589 25.4558 113.68 56.0908L113.68 56.2598L91.4077 56.2598C91.4077 56.2598 91.4077 56.2597 91.4077 56.2597C91.4077 37.809 76.4505 22.8517 57.9997 22.8517C39.549 22.8517 24.5918 37.809 24.5918 56.2597C24.5918 56.2597 24.5918 56.2598 24.5918 56.2598L2.32 56.2598Z" fill="url(#paint0_linear_1_2287)"/>
<path fill-rule="evenodd" clip-rule="evenodd" d="M113.68 56.144C113.68 56.144 113.68 56.1441 113.68 56.1441C113.68 86.8541 88.818 111.757 58.1237 111.824L57.8762 111.824C27.2449 111.757 2.42203 86.9561 2.32031 56.3331L2.32031 56.144L24.5922 56.144C24.5922 56.144 24.5922 56.1441 24.5922 56.1441C24.5922 74.5948 39.5495 89.5521 58.0002 89.5521C76.4509 89.5521 91.4082 74.5948 91.4082 56.1441C91.4082 56.1441 91.4082 56.144 91.4082 56.144L113.68 56.144Z" fill="url(#paint1_linear_1_2287)"/>
<defs>
<linearGradient id="paint0_linear_1_2287" x1="58" y1="8.49976" x2="58" y2="41.4998" gradientUnits="userSpaceOnUse">
<stop stop-color="#04C48B"/>
<stop offset="1" stop-color="white" stop-opacity="0"/>
</linearGradient>
<linearGradient id="paint1_linear_1_2287" x1="58" y1="87.5002" x2="58.0001" y2="6.90203" gradientUnits="userSpaceOnUse">
<stop stop-color="#04C48B"/>
<stop offset="1" stop-color="white" stop-opacity="0"/>
</linearGradient>
</defs>
</svg>
