<svg width="58" height="56" viewBox="0 0 58 56" fill="none" xmlns="http://www.w3.org/2000/svg">
<path d="M1 17.8V7C1 3.6863 3.68629 1 7 1H17.8" stroke="#04C48B" stroke-width="1.5" stroke-linecap="round" stroke-linejoin="round"/>
<path d="M57 17.8V7C57 3.6863 54.3137 1 51 1H40.2" stroke="#04C48B" stroke-width="1.5" stroke-linecap="round" stroke-linejoin="round"/>
<path d="M57 37.9578V48.7578C57 52.0715 54.3137 54.7578 51 54.7578H40.2" stroke="#04C48B" stroke-width="1.5" stroke-linecap="round" stroke-linejoin="round"/>
<path d="M1 37.9578V48.7578C1 52.0715 3.68629 54.7578 7 54.7578H17.8" stroke="#04C48B" stroke-width="1.5" stroke-linecap="round" stroke-linejoin="round"/>
<path d="M29.0007 11.332C19.8173 11.332 12.334 18.8154 12.334 27.9987C12.334 37.182 19.8173 44.6654 29.0007 44.6654C38.184 44.6654 45.6673 37.182 45.6673 27.9987C45.6673 18.8154 38.184 11.332 29.0007 11.332ZM36.9673 24.1654L27.5173 33.6154C27.284 33.8487 26.9673 33.982 26.634 33.982C26.3007 33.982 25.984 33.8487 25.7507 33.6154L21.034 28.8987C20.5507 28.4154 20.5507 27.6154 21.034 27.132C21.5173 26.6487 22.3173 26.6487 22.8007 27.132L26.634 30.9654L35.2007 22.3987C35.684 21.9154 36.484 21.9154 36.9673 22.3987C37.4507 22.882 37.4507 23.6654 36.9673 24.1654Z" fill="#04C48B"/>
</svg>
