<svg width="139" height="63" viewBox="0 0 139 63" fill="none" xmlns="http://www.w3.org/2000/svg">
<g clip-path="url(#clip0_619_53512)">
<path d="M53.871 59.9744H18.6206L22.8813 48.8871H37.6467L27.1894 21.6752L12.4694 59.9744H0.507812L21.2076 6.11328H33.1692L53.871 59.9744Z" fill="black"/>
<path d="M101.105 12.8339C101.008 12.4799 100.826 12.218 100.562 12.0482C100.297 11.8784 100.004 11.8354 99.6817 11.9234C99.2168 12.0482 98.8304 12.3428 98.5266 12.8052C98.2229 13.2676 98.0349 13.8344 97.9688 14.5055L100.752 13.7566C100.969 13.6993 101.103 13.6134 101.157 13.5009C101.213 13.3883 101.207 13.2062 101.138 12.9587L101.105 12.8339Z" fill="black"/>
<path d="M91.4389 15.9353C91.2282 15.923 91.0401 15.9762 90.8769 16.097C90.7137 16.2177 90.6289 16.3813 90.6289 16.588C90.6269 16.7946 90.7054 17.0074 90.8686 17.2243C91.0319 17.4412 91.2096 17.5762 91.4038 17.6315C91.598 17.6867 91.784 17.6499 91.9575 17.523C92.1456 17.3839 92.2448 17.2141 92.253 17.0095C92.22 16.9747 92.1704 16.9133 92.1084 16.8315L91.4389 15.9353Z" fill="black"/>
<path d="M131.066 33.0428C131.066 18.1704 118.889 6.11328 103.87 6.11328C95.0634 6.11328 87.2343 10.2585 82.265 16.683C77.306 10.2708 69.5017 6.1317 60.718 6.11328H39.3281L43.5784 17.174H60.6581C69.5017 17.174 76.6716 24.2736 76.6716 33.0306C76.6716 35.9072 75.8988 38.6039 74.5475 40.9281C71.7828 45.6831 66.5986 48.8851 60.6602 48.8851H55.7673L60.0258 59.9642L60.0279 59.9724H60.6602C69.4666 59.9724 77.2936 55.8272 82.265 49.4027C87.2364 55.8292 95.0634 59.9724 103.87 59.9724C106.913 59.9724 109.841 59.4773 112.575 58.5627L114.505 63.5836H126.466L117.759 40.9302C115.759 44.3716 112.49 46.9987 108.587 48.1894C107.095 48.6436 105.512 48.8892 103.872 48.8892C97.9334 48.8892 92.7492 45.6872 89.9845 40.9322C88.6332 38.6059 87.8604 35.9093 87.8604 33.0347C87.8604 24.2777 95.0303 17.1781 103.874 17.1781C112.717 17.1781 119.887 24.2777 119.887 33.0347C119.887 35.9113 119.115 38.608 117.763 40.9322H129.888C130.653 38.4361 131.066 35.7865 131.066 33.0428ZM114.3 11.5147C114.472 11.1546 114.742 11.0605 115.112 11.2324C115.28 11.3101 115.389 11.4206 115.441 11.5638C115.492 11.7071 115.48 11.8605 115.399 12.0262C115.224 12.3986 114.953 12.4989 114.59 12.3291C114.422 12.2513 114.311 12.1388 114.259 11.9915C114.205 11.8462 114.22 11.6887 114.3 11.5147ZM113.009 10.9132C113.178 10.5531 113.449 10.459 113.819 10.6309C113.986 10.7086 114.096 10.8191 114.147 10.9623C114.197 11.1055 114.185 11.259 114.106 11.4247C113.93 11.795 113.66 11.8973 113.296 11.7275C113.129 11.6498 113.019 11.5372 112.965 11.3899C112.912 11.2447 112.926 11.0851 113.009 10.9132ZM98.6669 9.29892C98.7454 9.16388 98.8736 9.07181 99.0513 9.02475C99.231 8.97565 99.386 8.98997 99.5203 9.06567C99.6525 9.14137 99.7435 9.26823 99.793 9.44418C99.9005 9.84111 99.762 10.0907 99.3736 10.1951C99.1938 10.2421 99.0368 10.2278 98.9004 10.1521C98.764 10.0744 98.6711 9.94341 98.6215 9.76131C98.5719 9.5874 98.5884 9.43395 98.6669 9.29892ZM89.1787 14.8743C89.0299 14.9848 88.877 15.0277 88.722 15.0052C88.565 14.9827 88.4307 14.8947 88.317 14.7433C88.0774 14.4242 88.1208 14.1439 88.4493 13.9024C88.5981 13.7919 88.7468 13.749 88.8997 13.7715C89.0506 13.794 89.1828 13.8779 89.2923 14.0252C89.5382 14.3526 89.501 14.6369 89.1787 14.8743ZM89.5961 13.0574C89.7448 12.9469 89.8957 12.904 90.0465 12.9265C90.1973 12.949 90.3296 13.0329 90.4391 13.1802C90.687 13.5096 90.6478 13.7919 90.3255 14.0293C90.1767 14.1398 90.0238 14.1827 89.8688 14.1602C89.7138 14.1377 89.5775 14.0497 89.4638 13.8983C89.2241 13.5792 89.2675 13.2989 89.5961 13.0574ZM105.721 15.6743C105.694 16.0835 105.481 16.2758 105.081 16.2492C104.895 16.2369 104.75 16.1735 104.647 16.0569C104.543 15.9403 104.496 15.7868 104.508 15.5965C104.521 15.4185 104.585 15.2794 104.702 15.1771C104.82 15.0748 104.973 15.0298 105.157 15.04C105.343 15.0523 105.486 15.1157 105.585 15.2282C105.688 15.3428 105.734 15.4922 105.721 15.6743ZM105.407 14.3485C104.891 14.7577 104.306 14.6983 104.196 14.684C102.95 14.682 101.341 14.7965 99.5182 15.2364C97.3941 15.75 95.7122 16.5316 94.5241 17.1986C94.0633 17.5382 93.5901 17.6487 93.1087 17.53C93.0178 17.8492 92.8174 18.1213 92.5095 18.3484C92.0528 18.684 91.5611 18.7822 91.0342 18.643C90.6003 18.5264 90.2366 18.2727 89.9411 17.8799C89.5775 17.3929 89.439 16.8814 89.5279 16.3433C89.6043 15.8912 89.8192 15.5351 90.1705 15.2753C90.3544 15.1403 90.5486 15.0502 90.7532 15.0073L90.6085 14.815L91.1747 13.6446L93.0157 16.0998C93.0777 16.1878 93.2161 16.3597 93.4434 16.419C93.7017 16.4845 93.929 16.3576 94.1749 16.2165C94.6439 15.9505 95.0654 15.6968 95.4415 15.4615C95.2287 14.7822 95.0179 14.1029 94.8051 13.4216C95.1026 13.1495 95.3981 12.8774 95.6956 12.6032C95.9436 13.3889 96.1916 14.1746 96.4395 14.9623C96.5883 14.907 96.735 14.8497 96.8837 14.7945C96.9333 13.8554 97.1586 13.0431 97.5615 12.3577C98.0037 11.5925 98.6194 11.1014 99.4067 10.8907C100.109 10.7004 100.741 10.7925 101.297 11.1628C101.766 11.4738 102.085 11.9321 102.25 12.5337C102.324 12.8651 102.401 13.1966 102.475 13.5301C103.035 13.5485 103.506 13.5239 103.855 13.4932C104.483 13.44 104.682 13.3705 104.81 13.2129C104.921 13.0758 104.93 12.9306 104.94 12.4723C104.95 12.0058 104.957 11.5945 104.959 11.2569L106.163 10.727L106.008 13.082C106.01 13.17 106.002 13.8758 105.407 14.3485ZM115.515 18.1438C114.941 18.2072 114.509 17.9699 114.368 17.884C113.623 17.4134 112.761 16.9264 111.786 16.4661C110.602 15.9075 109.49 15.4983 108.504 15.1976C108.366 15.1321 108.161 15.0155 107.992 14.8068C107.639 14.371 107.593 13.8063 107.703 13.3275C107.703 13.3255 108.519 9.82065 108.519 9.82065L109.794 9.48919L108.854 13.5342C108.816 13.6671 108.781 13.8799 108.885 14.0641C109.009 14.2891 109.269 14.3526 109.577 14.4324C109.891 14.5142 110.35 14.641 110.934 14.819C110.883 14.3832 110.938 13.9884 111.104 13.6405C111.366 13.0861 111.744 12.7178 112.236 12.5337C112.676 12.3679 113.137 12.3966 113.62 12.6216C114.168 12.8774 114.499 13.2723 114.614 13.8063C114.711 14.2441 114.647 14.7045 114.418 15.1873C114.253 15.5372 113.982 15.8298 113.61 16.0692C113.97 16.3004 114.327 16.5336 114.687 16.7648C114.753 16.8037 115.034 16.9571 115.402 16.8876C115.755 16.818 115.953 16.5868 116.003 16.5254C116.666 15.6681 117.327 14.8088 117.991 13.9515L119.288 14.1602L116.827 17.3479C116.759 17.4359 116.325 18.0538 115.515 18.1438ZM117.542 20.6584L116.73 19.8256L120.588 16.1408L121.846 16.5459L117.542 20.6584Z" fill="black"/>
<path d="M113.139 13.5918C112.714 13.3933 112.383 13.5468 112.144 14.0501C112.04 14.267 112.003 14.4941 112.034 14.7335C112.063 14.9729 112.15 15.1795 112.296 15.3473C112.528 15.3473 112.749 15.2818 112.958 15.1529C113.166 15.024 113.319 14.8562 113.416 14.6516C113.53 14.4143 113.561 14.1995 113.511 14.0112C113.458 13.823 113.336 13.6818 113.139 13.5918Z" fill="black"/>
</g>
<defs>
<clipPath id="clip0_619_53512">
<rect width="139" height="62.9658" fill="white" transform="translate(0 0.015625)"/>
</clipPath>
</defs>
</svg>
