<svg width="188" height="49" viewBox="0 0 188 49" fill="none" xmlns="http://www.w3.org/2000/svg">
<path fill-rule="evenodd" clip-rule="evenodd" d="M40.8345 46.7309V2.44274C46.4372 2.81163 51.0129 5.42294 54.8363 9.48399C58.9366 13.8343 61.4941 19.2005 63.7096 24.6855C67.441 14.4801 74.4688 3.4709 86.347 2.44274V17.8427C88.0075 13.0304 90.4876 8.66663 94.561 5.47564C98.9114 2.04696 104.306 0.570312 109.776 0.570312C119.679 0.570312 129.592 7.3604 131.359 17.4334H119.942C117.991 12.925 113.839 11.1187 109.065 11.1187C101.51 11.1187 95.7215 16.7226 95.7215 24.3558C95.7215 32.2683 100.969 38.0683 108.999 38.0683C112.386 38.0683 115.619 37.0256 118.056 34.615C119.414 33.2549 120.232 31.5686 120.958 29.815H107.825V19.2408H132.166V2.44274H154.987V13.0966H143.069V19.2397H154.987V29.8139H143.069V36.077H154.987V46.7309H132.166V29.8139C131.386 33.5722 129.818 36.7621 127.418 39.7827C122.857 45.5177 116.119 48.4306 108.829 48.4306C103.303 48.4306 97.8731 46.9943 93.599 43.3549C89.8284 40.1516 87.5736 35.9986 86.347 31.2782V46.732H75.6685V22.7469C70.5389 29.5493 68.8122 38.3565 68.6542 46.7309H58.608C58.4242 38.2915 56.1829 29.8408 51.5152 22.7469V46.7309H40.8345ZM0.910156 46.7309L1.22746 45.6489L3.05953 39.4127C4.57654 34.2842 6.59361 29.2073 8.80802 24.3424C14.4119 11.9495 23.7471 2.24541 38.0651 2.24541C38.3947 2.24541 38.7244 2.25886 39.054 2.25886V46.732H28.2959V35.9862H14.6103L14.3065 36.9348L13.6606 38.8992L12.7771 42.0105L11.9329 45.4269L11.5898 46.732L0.910156 46.7309ZM177.32 2.44274H188V46.7309H178.362C176.938 39.3992 173.47 30.0785 167.446 25.4232V46.7309H156.753V2.41695C161.605 3.40475 167.947 8.38968 171.48 11.778C173.748 13.9666 175.963 16.366 177.32 19.2408V2.44274Z" fill="black"/>
<path fill-rule="evenodd" clip-rule="evenodd" d="M19.4609 25.4209H28.295V15.3086C23.6139 17.4838 21.6496 20.9651 19.4609 25.4209Z" fill="white"/>
</svg>
