<svg width="109" height="113" viewBox="0 0 109 113" fill="none" xmlns="http://www.w3.org/2000/svg">
<g clip-path="url(#clip0_619_53916)">
<path d="M8.0805 108.454L7.73015 107.439H5.72532L5.37775 108.454H4.55469L6.42048 103.398H7.04056L8.90356 108.454H8.0805ZM6.74581 104.543L5.95334 106.786H7.51604L6.74581 104.543Z" fill="black"/>
<path d="M16.9504 108.456V105.074L15.777 107.538H15.2097L14.0085 105.074V108.456H13.2383V103.398H14.0085L15.4934 106.545L16.9504 103.398H17.7206V108.456H16.9504Z" fill="black"/>
<mask id="mask0_619_53916" style="mask-type:luminance" maskUnits="userSpaceOnUse" x="-5" y="-10" width="119" height="132">
<path d="M113.387 -9.88281H-4.80273V121.962H113.387V-9.88281Z" fill="white"/>
</mask>
<g mask="url(#mask0_619_53916)">
<path d="M21.7354 108.498C20.701 108.498 19.9141 107.795 19.9141 106.753V103.398H20.6843V106.717C20.6843 107.389 21.0986 107.809 21.7326 107.809C22.3693 107.809 22.7892 107.389 22.7892 106.717V103.398H23.5594V106.753C23.5622 107.795 22.7698 108.498 21.7354 108.498Z" fill="black"/>
</g>
<mask id="mask1_619_53916" style="mask-type:luminance" maskUnits="userSpaceOnUse" x="-5" y="-10" width="119" height="132">
<path d="M113.387 -9.88281H-4.80273V121.962H113.387V-9.88281Z" fill="white"/>
</mask>
<g mask="url(#mask1_619_53916)">
<path d="M27.8194 108.454H25.7617V103.398H27.7387C28.6814 103.398 29.2736 103.929 29.2736 104.784C29.2736 105.331 28.9316 105.721 28.5868 105.857C28.9789 106.012 29.3515 106.388 29.3515 107.027C29.3515 107.956 28.7175 108.454 27.8194 108.454ZM27.6776 104.09H26.5347V105.536H27.6776C28.1697 105.536 28.5062 105.282 28.5062 104.812C28.5062 104.344 28.167 104.09 27.6776 104.09ZM27.7471 106.225H26.5347V107.768H27.7471C28.281 107.768 28.584 107.439 28.584 106.993C28.584 106.545 28.281 106.225 27.7471 106.225Z" fill="black"/>
</g>
<mask id="mask2_619_53916" style="mask-type:luminance" maskUnits="userSpaceOnUse" x="-5" y="-10" width="119" height="132">
<path d="M113.387 -9.88281H-4.80273V121.962H113.387V-9.88281Z" fill="white"/>
</mask>
<g mask="url(#mask2_619_53916)">
<path d="M34.3676 108.454L34.02 107.439H32.0124L31.6649 108.454H30.8418L32.7076 103.398H33.3277L35.1907 108.454H34.3676ZM33.0329 104.543L32.2404 106.786H33.8031L33.0329 104.543Z" fill="black"/>
</g>
<mask id="mask3_619_53916" style="mask-type:luminance" maskUnits="userSpaceOnUse" x="-5" y="-10" width="119" height="132">
<path d="M113.387 -9.88281H-4.80273V121.962H113.387V-9.88281Z" fill="white"/>
</mask>
<g mask="url(#mask3_619_53916)">
<path d="M39.9598 107.978C39.6372 108.299 39.1728 108.454 38.6445 108.454H36.8594V103.398H38.6445C39.1728 103.398 39.6372 103.556 39.9598 103.874C40.5075 104.422 40.4714 105.16 40.4714 105.893C40.4714 106.623 40.5103 107.433 39.9598 107.978ZM39.4314 104.43C39.2173 104.195 38.9337 104.09 38.5667 104.09H37.6324V107.768H38.5667C38.9337 107.768 39.2173 107.66 39.4314 107.428C39.6956 107.135 39.7039 106.587 39.7039 105.893C39.7039 105.199 39.6956 104.72 39.4314 104.43Z" fill="black"/>
</g>
<mask id="mask4_619_53916" style="mask-type:luminance" maskUnits="userSpaceOnUse" x="-5" y="-10" width="119" height="132">
<path d="M113.387 -9.88281H-4.80273V121.962H113.387V-9.88281Z" fill="white"/>
</mask>
<g mask="url(#mask4_619_53916)">
<path d="M45.4164 108.454L45.0661 107.439H43.0613L42.7109 108.454H41.8906L43.7564 103.398H44.3765L46.2395 108.454H45.4164ZM44.0817 104.543L43.2893 106.786H44.852L44.0817 104.543Z" fill="black"/>
</g>
<mask id="mask5_619_53916" style="mask-type:luminance" maskUnits="userSpaceOnUse" x="-5" y="-10" width="119" height="132">
<path d="M113.387 -9.88281H-4.80273V121.962H113.387V-9.88281Z" fill="white"/>
</mask>
<g mask="url(#mask5_619_53916)">
<path d="M47.9062 108.456V103.398H48.6793V107.768H51.129V108.456H47.9062Z" fill="black"/>
</g>
<mask id="mask6_619_53916" style="mask-type:luminance" maskUnits="userSpaceOnUse" x="-5" y="-10" width="119" height="132">
<path d="M113.387 -9.88281H-4.80273V121.962H113.387V-9.88281Z" fill="white"/>
</mask>
<g mask="url(#mask6_619_53916)">
<path d="M55.8793 108.454L55.529 107.439H53.5242L53.1738 108.454H52.3535L54.2193 103.398H54.8394L56.7024 108.454H55.8793ZM54.5446 104.543L53.7522 106.786H55.3149L54.5446 104.543Z" fill="black"/>
</g>
<mask id="mask7_619_53916" style="mask-type:luminance" maskUnits="userSpaceOnUse" x="-5" y="-10" width="119" height="132">
<path d="M113.387 -9.88281H-4.80273V121.962H113.387V-9.88281Z" fill="white"/>
</mask>
<g mask="url(#mask7_619_53916)">
<path d="M62.6765 108.498C62.1454 108.498 61.6921 108.307 61.3418 107.958C60.8413 107.463 60.8496 106.902 60.8496 105.928C60.8496 104.955 60.8413 104.394 61.3418 103.899C61.6921 103.55 62.1482 103.359 62.6765 103.359C63.6108 103.359 64.3115 103.907 64.4894 104.914H63.7053C63.583 104.402 63.2409 104.048 62.6765 104.048C62.379 104.048 62.1037 104.159 61.9257 104.352C61.6755 104.62 61.6198 104.914 61.6198 105.928C61.6198 106.943 61.6782 107.237 61.9257 107.505C62.1037 107.696 62.379 107.812 62.6765 107.812C63.2409 107.812 63.5913 107.455 63.7137 106.943H64.4894C64.317 107.95 63.5996 108.498 62.6765 108.498Z" fill="black"/>
</g>
<mask id="mask8_619_53916" style="mask-type:luminance" maskUnits="userSpaceOnUse" x="-5" y="-10" width="119" height="132">
<path d="M113.387 -9.88281H-4.80273V121.962H113.387V-9.88281Z" fill="white"/>
</mask>
<g mask="url(#mask8_619_53916)">
<path d="M69.4531 107.961C69.1055 108.307 68.6551 108.498 68.1129 108.498C67.5706 108.498 67.1285 108.307 66.7754 107.961C66.2776 107.463 66.2832 106.902 66.2832 105.928C66.2832 104.958 66.2749 104.396 66.7754 103.899C67.1285 103.55 67.5706 103.359 68.1129 103.359C68.6551 103.359 69.1055 103.55 69.4531 103.899C69.9536 104.396 69.9425 104.958 69.9425 105.928C69.9397 106.902 69.9536 107.463 69.4531 107.961ZM68.8692 104.36C68.6912 104.17 68.4132 104.048 68.1129 104.048C67.8125 104.048 67.5345 104.17 67.3537 104.36C67.1035 104.629 67.0562 104.914 67.0562 105.928C67.0562 106.943 67.1063 107.231 67.3537 107.499C67.5317 107.69 67.8098 107.812 68.1129 107.812C68.4104 107.812 68.6884 107.69 68.8692 107.499C69.1194 107.231 69.1667 106.943 69.1667 105.928C69.1667 104.914 69.1167 104.629 68.8692 104.36Z" fill="black"/>
</g>
<mask id="mask9_619_53916" style="mask-type:luminance" maskUnits="userSpaceOnUse" x="-5" y="-10" width="119" height="132">
<path d="M113.387 -9.88281H-4.80273V121.962H113.387V-9.88281Z" fill="white"/>
</mask>
<g mask="url(#mask9_619_53916)">
<path d="M75.7453 108.456V105.074L74.5719 107.538H74.0047L72.8034 105.074V108.456H72.0332V103.398H72.8034L74.2883 106.545L75.7453 103.398H76.5155V108.456H75.7453Z" fill="black"/>
</g>
<mask id="mask10_619_53916" style="mask-type:luminance" maskUnits="userSpaceOnUse" x="-5" y="-10" width="119" height="132">
<path d="M113.387 -9.88281H-4.80273V121.962H113.387V-9.88281Z" fill="white"/>
</mask>
<g mask="url(#mask10_619_53916)">
<path d="M80.7188 106.468H79.5593V108.454H78.7891V103.398H80.7188C81.7087 103.398 82.3455 104.051 82.3455 104.933C82.3455 105.813 81.7087 106.468 80.7188 106.468ZM80.6743 104.087H79.5593V105.771H80.6743C81.2082 105.771 81.5724 105.464 81.5724 104.93C81.5724 104.4 81.211 104.087 80.6743 104.087Z" fill="black"/>
</g>
<mask id="mask11_619_53916" style="mask-type:luminance" maskUnits="userSpaceOnUse" x="-5" y="-10" width="119" height="132">
<path d="M113.387 -9.88281H-4.80273V121.962H113.387V-9.88281Z" fill="white"/>
</mask>
<g mask="url(#mask11_619_53916)">
<path d="M86.7934 108.454L86.443 107.439H84.4382L84.0878 108.454H83.2676L85.1334 103.398H85.7534L87.6164 108.454H86.7934ZM85.4587 104.543L84.6662 106.786H86.2289L85.4587 104.543Z" fill="black"/>
</g>
<mask id="mask12_619_53916" style="mask-type:luminance" maskUnits="userSpaceOnUse" x="-5" y="-10" width="119" height="132">
<path d="M113.387 -9.88281H-4.80273V121.962H113.387V-9.88281Z" fill="white"/>
</mask>
<g mask="url(#mask12_619_53916)">
<path d="M92.4078 108.456L90.0582 104.897V108.456H89.2852V103.398H89.9914L92.3438 106.949V103.398H93.1141V108.456H92.4078Z" fill="black"/>
</g>
<mask id="mask13_619_53916" style="mask-type:luminance" maskUnits="userSpaceOnUse" x="-5" y="-10" width="119" height="132">
<path d="M113.387 -9.88281H-4.80273V121.962H113.387V-9.88281Z" fill="white"/>
</mask>
<g mask="url(#mask13_619_53916)">
<path d="M97.0577 106.374V108.454H96.2875V106.374L94.7637 103.398H95.609L96.6712 105.622L97.7361 103.398H98.5759L97.0577 106.374Z" fill="black"/>
</g>
<mask id="mask14_619_53916" style="mask-type:luminance" maskUnits="userSpaceOnUse" x="-5" y="-10" width="119" height="132">
<path d="M113.387 -9.88281H-4.80273V121.962H113.387V-9.88281Z" fill="white"/>
</mask>
<g mask="url(#mask14_619_53916)">
<path d="M101.595 81.9531C98.4582 81.9531 95.7109 84.6798 95.7109 87.7827V98.3604H98.5193V87.7827C98.5193 86.0266 99.8151 84.749 101.595 84.749H104.061V81.9531H101.595Z" fill="black"/>
</g>
<mask id="mask15_619_53916" style="mask-type:luminance" maskUnits="userSpaceOnUse" x="-5" y="-10" width="119" height="132">
<path d="M113.387 -9.88281H-4.80273V121.962H113.387V-9.88281Z" fill="white"/>
</mask>
<g mask="url(#mask15_619_53916)">
<path d="M73.6055 78.1094V82.8438C72.674 82.2575 71.6035 81.9533 70.5385 81.9533H67.0099C63.8761 81.9533 61.1289 84.6635 61.1289 87.769V92.5145C61.1289 95.6339 63.8761 98.3523 67.0099 98.3606H69.3929C70.9723 98.3523 72.4321 97.8297 73.6055 96.953V98.3606H76.4167V78.1094H73.6055ZM73.6055 91.3475C73.6055 93.6456 71.723 95.515 69.4151 95.5482H67.0099C65.1997 95.5482 63.9401 93.9498 63.9401 92.5145V87.769C63.9401 86.013 65.2303 84.7437 67.0099 84.7437H70.5385C72.2541 84.7437 73.6055 85.8913 73.6055 87.3625V91.3475Z" fill="black"/>
</g>
<mask id="mask16_619_53916" style="mask-type:luminance" maskUnits="userSpaceOnUse" x="-5" y="-10" width="119" height="132">
<path d="M113.387 -9.88281H-4.80273V121.962H113.387V-9.88281Z" fill="white"/>
</mask>
<g mask="url(#mask16_619_53916)">
<path d="M87.7275 81.9531H85.0414C82.4499 81.9531 80.1253 83.8309 79.394 86.2119H82.461C83.0254 85.3684 84.0042 84.7462 85.0469 84.7462H87.7275C89.5126 84.7462 90.8084 86.0294 90.8084 87.7882V88.0869H84.3045C81.0067 88.0869 78.418 90.2854 78.418 93.0923C78.418 95.9517 81.1152 98.3604 84.3045 98.3604H86.568C88.1668 98.3604 89.6461 97.8267 90.8279 96.9279V98.3604H93.6363V87.7882C93.614 84.6854 90.8668 81.9531 87.7275 81.9531ZM84.3045 95.548C82.4916 95.548 81.2292 94.2538 81.2292 93.095C81.2292 91.8727 82.5805 90.9131 84.3045 90.9131H90.8084V91.4939C90.7361 93.7311 88.8536 95.5286 86.593 95.5507H84.3045V95.548Z" fill="black"/>
</g>
<mask id="mask17_619_53916" style="mask-type:luminance" maskUnits="userSpaceOnUse" x="-5" y="-10" width="119" height="132">
<path d="M113.387 -9.88281H-4.80273V121.962H113.387V-9.88281Z" fill="white"/>
</mask>
<g mask="url(#mask17_619_53916)">
<path d="M35.5517 81.9531H32.8656C30.2713 81.9531 27.9495 83.8309 27.2182 86.2119H30.2852C30.8497 85.3684 31.8284 84.7462 32.8712 84.7462H35.5517C37.3368 84.7462 38.6326 86.0294 38.6326 87.7882V88.0869H32.1287C28.8309 88.0869 26.2422 90.2854 26.2422 93.0923C26.2422 95.9517 28.9394 98.3604 32.1287 98.3604H34.3922C35.991 98.3604 37.4675 97.8267 38.6521 96.9279V98.3604H41.4605V87.7882C41.4382 84.6854 38.691 81.9531 35.5517 81.9531ZM32.1287 95.548C30.3186 95.548 29.0534 94.2538 29.0534 93.095C29.0534 91.8727 30.4048 90.9131 32.1287 90.9131H38.6326V91.4939C38.5603 93.7311 36.6806 95.5286 34.4172 95.5507H32.1287V95.548Z" fill="black"/>
</g>
<mask id="mask18_619_53916" style="mask-type:luminance" maskUnits="userSpaceOnUse" x="-5" y="-10" width="119" height="132">
<path d="M113.387 -9.88281H-4.80273V121.962H113.387V-9.88281Z" fill="white"/>
</mask>
<g mask="url(#mask18_619_53916)">
<path d="M53.082 88.0896H48.3744C47.34 88.1117 46.4641 87.2959 46.4641 86.3972C46.4641 85.5012 47.34 84.7407 48.3744 84.749H53.1932C54.2359 84.749 55.2119 85.3712 55.7764 86.2146H58.8406C58.1149 83.8336 55.7875 81.9531 53.196 81.9531H48.3744C45.7801 81.9587 43.6641 83.947 43.6641 86.3972C43.6641 88.8473 45.7773 90.8938 48.3744 90.9076H53.082C54.806 90.9076 56.1574 91.87 56.1574 93.0923C56.1574 94.251 54.895 95.5452 53.082 95.5452H49.3143C48.2715 95.5508 47.2955 94.9285 46.7283 94.0878H43.6641C44.3926 96.4661 46.7172 98.3494 49.3115 98.3577H53.082C56.2741 98.3577 58.9686 95.949 58.9686 93.0895C58.9686 90.2881 56.3854 88.0896 53.082 88.0896Z" fill="black"/>
</g>
<mask id="mask19_619_53916" style="mask-type:luminance" maskUnits="userSpaceOnUse" x="-5" y="-10" width="119" height="132">
<path d="M113.387 -9.88281H-4.80273V121.962H113.387V-9.88281Z" fill="white"/>
</mask>
<g mask="url(#mask19_619_53916)">
<path d="M20.6037 78.1641L14.2472 94.3861L7.89076 78.1641H4.52344V98.36H7.33185V84.6601L12.4704 98.36H16.024L21.1682 84.6601V98.36H23.9766V78.1641H20.6037Z" fill="black"/>
</g>
<mask id="mask20_619_53916" style="mask-type:luminance" maskUnits="userSpaceOnUse" x="33" y="4" width="42" height="42">
<path d="M49.6852 8.04121C49.4044 8.32329 49.1402 8.61365 48.8899 8.92338C45.6672 12.878 45.6199 18.3839 48.4228 22.3634L48.42 22.3661C47.6136 22.1366 46.8573 21.7439 46.1872 21.2047C44.8636 20.1372 44.035 18.6218 43.857 16.9321C43.8348 16.7136 43.8209 16.4868 43.8209 16.2628C43.8209 13.6799 45.4475 11.3127 47.8667 10.3669L47.8861 10.3586L46.1093 5.87035L46.0899 5.87864C41.8327 7.54067 38.9715 11.7137 38.9743 16.2573C38.9715 16.65 38.9937 17.0455 39.0327 17.4382C39.5665 22.5044 43.4483 26.4258 48.256 27.272V27.2748C47.5247 27.6758 46.7099 27.933 45.848 28.0215C44.1546 28.1984 42.4917 27.7117 41.171 26.6443C40.993 26.5032 40.8262 26.3511 40.6677 26.1935C38.8325 24.3683 38.2958 21.5476 39.333 19.1804L39.3441 19.161L34.8951 17.2363L34.8868 17.2556C33.0627 21.4231 34.0053 26.3843 37.2336 29.5978C37.5145 29.8771 37.8092 30.1398 38.1178 30.3914C42.0997 33.5938 47.6303 33.6408 51.6316 30.856H51.6344C51.4036 31.658 51.0115 32.4102 50.4665 33.0767C49.3932 34.393 47.8695 35.2171 46.1761 35.3941C45.9508 35.4162 45.7228 35.43 45.5004 35.43C42.9061 35.43 40.5231 33.815 39.5693 31.4091L39.5638 31.3898L35.0508 33.1569L35.0564 33.1762C36.7331 37.4073 40.9235 40.253 45.4948 40.253C45.8897 40.253 46.2873 40.2336 46.6821 40.1921C51.7734 39.6612 55.7163 35.8006 56.5644 31.0192H56.57C56.976 31.7465 57.2346 32.5595 57.3235 33.414C57.5015 35.0982 57.0065 36.7547 55.9332 38.0683C55.7942 38.2453 55.6413 38.4112 55.4856 38.5688C53.6504 40.394 50.8113 40.925 48.4339 39.8935L48.4145 39.8852L46.4819 44.3071L46.5014 44.3154C50.6946 46.1323 55.6774 45.1948 58.9085 41.9814C59.1866 41.7048 59.4563 41.4117 59.7065 41.1047C62.9265 37.1446 62.9737 31.6414 60.1709 27.6647L60.1764 27.6564C60.98 27.8915 61.7364 28.2814 62.4093 28.8234C63.7328 29.8881 64.5615 31.4063 64.7394 33.0877C64.7617 33.3117 64.7728 33.5385 64.7728 33.7597C64.7728 36.3426 63.1489 38.7099 60.727 39.6584L60.7103 39.6639L62.4871 44.1522L62.5038 44.1467C66.7609 42.4791 69.625 38.3144 69.625 33.768C69.625 33.3753 69.6055 32.9771 69.561 32.5872C69.0271 27.5209 65.1454 23.5968 60.3377 22.7561C60.3377 22.7561 60.3377 22.7505 60.3349 22.7478C61.069 22.3468 61.8865 22.0896 62.743 22.0011C64.4391 21.8241 66.1019 22.3136 67.4255 23.3838C67.6035 23.5221 67.7703 23.6742 67.926 23.8318C69.7612 25.657 70.3007 28.4778 69.2607 30.845L69.2524 30.8643L73.6986 32.7863L73.7041 32.7669C75.5338 28.5967 74.5911 23.6382 71.3573 20.422C71.0764 20.1455 70.7817 19.88 70.4731 19.6339C66.494 16.4288 60.9606 16.3818 56.9593 19.1693L56.9565 19.1638C57.1873 18.3646 57.5849 17.6124 58.1271 16.9459C59.2005 15.6268 60.7214 14.8055 62.4176 14.6257C62.6401 14.6036 62.8681 14.5925 63.0905 14.5925C65.6876 14.5925 68.0706 16.2075 69.0216 18.6135L69.0299 18.6328L73.5429 16.8657L73.5345 16.8491C71.8606 12.6152 67.6674 9.7696 63.0989 9.7696C62.7068 9.7696 62.3064 9.78896 61.9115 9.82768C56.8175 10.3614 52.8746 14.222 52.0265 19.0006L52.0209 19.0034C51.6177 18.2733 51.3591 17.463 51.2701 16.6113C51.0922 14.9216 51.5844 13.2706 52.6577 11.9515C52.7967 11.7773 52.9524 11.6114 53.1109 11.4565C54.9461 9.62857 57.7796 9.09484 60.157 10.1291L60.1764 10.1346L62.109 5.71825L62.0923 5.70719C60.6658 5.08773 59.1504 4.78906 57.6433 4.78906C54.7181 4.79183 51.8179 5.92289 49.6852 8.04121Z" fill="white"/>
</mask>
<g mask="url(#mask20_619_53916)">
<path d="M75.5288 4.79297H33.0605V46.1334H75.5288V4.79297Z" fill="black"/>
</g>
<mask id="mask21_619_53916" style="mask-type:luminance" maskUnits="userSpaceOnUse" x="-5" y="-10" width="119" height="132">
<path d="M113.387 -9.88281H-4.80273V121.962H113.387V-9.88281Z" fill="white"/>
</mask>
<g mask="url(#mask21_619_53916)">
<path d="M6.99262 73.0557C10.1264 73.0557 12.8764 70.329 12.8764 67.2262V56.6484H10.0652V67.2262C10.0652 68.9823 8.77221 70.2571 6.99262 70.2571H4.52344V73.0557H6.99262Z" fill="black"/>
</g>
<mask id="mask22_619_53916" style="mask-type:luminance" maskUnits="userSpaceOnUse" x="-5" y="-10" width="119" height="132">
<path d="M113.387 -9.88281H-4.80273V121.962H113.387V-9.88281Z" fill="white"/>
</mask>
<g mask="url(#mask22_619_53916)">
<path d="M98.1793 56.65H92.2594C89.1256 56.65 86.3756 59.3629 86.3756 62.4685V67.2112V67.2223C86.3673 68.652 85.1076 70.2366 83.3058 70.2449H71.1935C71.769 69.3489 72.1083 68.3035 72.1083 67.2112V62.4685C72.1083 59.3629 69.3582 56.65 66.2245 56.65H53.4142C52.3075 56.65 51.2537 56.9874 50.3472 57.5626V55.3281H47.5332V67.2223C47.5221 68.652 46.2597 70.2366 44.4579 70.2449H33.2687V62.4685C33.2687 59.3629 30.5214 56.65 27.3849 56.65H21.465C18.8651 56.65 16.5294 58.5194 15.812 60.9337H18.7817C19.2905 60.0183 20.2665 59.4431 21.465 59.4431H27.3849C29.1673 59.4431 30.4575 60.7124 30.4575 62.4685V70.2449H15.584V73.0601H44.4579C46.2097 73.0601 47.8363 72.2083 48.9346 70.9113C49.6437 71.7437 51.2036 73.0601 53.4142 73.0601H83.3058C85.0576 73.0601 86.6842 72.2083 87.7826 70.9113C88.4916 71.7437 90.0516 73.0601 92.2621 73.0601H98.1821C101.316 73.0518 104.066 70.3306 104.066 67.2112V62.4685C104.063 59.3629 101.313 56.65 98.1793 56.65ZM53.4142 70.2421C51.6513 70.2421 50.4112 68.7294 50.3472 67.3218V62.333C50.4112 60.6461 51.6791 59.4431 53.4142 59.4431H66.2217C68.0013 59.4431 69.2943 60.7124 69.2943 62.4685V67.2112C69.2943 68.6381 68.0458 70.2255 66.2495 70.2449H53.4142V70.2421ZM101.252 67.2112C101.252 68.6464 99.9895 70.2449 98.1793 70.2449H92.2594C90.4492 70.2449 89.1868 68.6464 89.1868 67.2112V62.4685C89.1868 60.7124 90.4798 59.4431 92.2594 59.4431H98.1793C99.9589 59.4431 101.252 60.7124 101.252 62.4685V67.2112Z" fill="black"/>
</g>
</g>
<defs>
<clipPath id="clip0_619_53916">
<rect width="109" height="112" fill="white" transform="translate(0 0.332031)"/>
</clipPath>
</defs>
</svg>
