<svg width="119" height="31" viewBox="0 0 119 31" fill="none" xmlns="http://www.w3.org/2000/svg">
<path fill-rule="evenodd" clip-rule="evenodd" d="M25.3942 29.6928V1.52301C28.9579 1.75764 31.8683 3.41858 34.3001 6.00165C36.9082 8.76871 38.5349 12.1819 39.9441 15.6707C42.3175 9.17949 46.7876 2.17697 54.3428 1.52301V11.3183C55.399 8.25738 56.9765 5.48176 59.5674 3.45211C62.3344 1.27126 65.7655 0.332031 69.245 0.332031C75.5436 0.332031 81.8494 4.65092 82.9733 11.058H75.7112C74.4703 8.19033 71.8295 7.04144 68.7928 7.04144C63.9876 7.04144 60.3055 10.6058 60.3055 15.461C60.3055 20.4938 63.6431 24.1829 68.7507 24.1829C70.9052 24.1829 72.9613 23.5197 74.5117 21.9864C75.3753 21.1214 75.8959 20.0488 76.3573 18.9334H68.0041V12.2076H83.4861V1.52301H98.0017V8.29945H90.4215V12.2069H98.0017V18.9327H90.4215V22.9164H98.0017V29.6928H83.4861V18.9327C82.9904 21.3232 81.9927 23.3521 80.4665 25.2734C77.5654 28.9212 73.2793 30.774 68.6423 30.774C65.1279 30.774 61.6741 29.8604 58.9555 27.5455C56.5571 25.508 55.123 22.8664 54.3428 19.864V29.6935H47.5506V14.4376C44.2879 18.7644 43.1897 24.3662 43.0891 29.6928H36.6992C36.5822 24.3249 35.1566 18.9498 32.1878 14.4376V29.6928H25.3942ZM0 29.6928L0.201824 29.0046L1.36713 25.038C2.33203 21.776 3.61501 18.5468 5.0235 15.4524C8.58787 7.56989 14.5256 1.39749 23.6327 1.39749C23.8424 1.39749 24.052 1.40605 24.2617 1.40605V29.6935H17.4189V22.8586H8.7141L8.52083 23.4619L8.11005 24.7114L7.54808 26.6904L7.01107 28.8634L6.79285 29.6935L0 29.6928ZM112.207 1.52301H119V29.6928H112.87C111.964 25.0295 109.758 19.101 105.926 16.1399V29.6928H99.1249V1.5066C102.212 2.1349 106.245 5.3056 108.492 7.46077C109.935 8.85286 111.344 10.379 112.207 12.2076V1.52301Z" fill="black"/>
<path fill-rule="evenodd" clip-rule="evenodd" d="M11.8008 16.139H17.4198V9.70703C14.4423 11.0906 13.1929 13.3049 11.8008 16.139Z" fill="#93CEF6"/>
</svg>
