<svg width="52" height="50" viewBox="0 0 52 50" fill="none" xmlns="http://www.w3.org/2000/svg">
<rect x="10" y="9" width="32" height="32" rx="16" fill="#FEA8A8"/>
<path d="M26 22.5V26.6667" stroke="#FF1C1C" stroke-width="1.5" stroke-linecap="round" stroke-linejoin="round"/>
<path d="M26.0047 32.8453H20.9547C18.0631 32.8453 16.8547 30.7786 18.2547 28.2536L20.8547 23.5703L23.3047 19.1703C24.7881 16.4953 27.2214 16.4953 28.7047 19.1703L31.1547 23.5786L33.7547 28.262C35.1547 30.787 33.9381 32.8536 31.0547 32.8536H26.0047V32.8453Z" stroke="#FF1C1C" stroke-width="1.5" stroke-linecap="round" stroke-linejoin="round"/>
<path d="M26 29.1641H26.0075" stroke="#FF1C1C" stroke-width="2" stroke-linecap="round" stroke-linejoin="round"/>
<path d="M1 16V5C1 2.79086 2.79086 1 5 1H16" stroke="#FF1C1C" stroke-width="1.5" stroke-linecap="round" stroke-linejoin="round"/>
<path d="M51 16V5C51 2.79086 49.2091 1 47 1H36" stroke="#FF1C1C" stroke-width="1.5" stroke-linecap="round" stroke-linejoin="round"/>
<path d="M51 34V45C51 47.2091 49.2091 49 47 49H36" stroke="#FF1C1C" stroke-width="1.5" stroke-linecap="round" stroke-linejoin="round"/>
<path d="M1 34V45C1 47.2091 2.79086 49 5 49H16" stroke="#FF1C1C" stroke-width="1.5" stroke-linecap="round" stroke-linejoin="round"/>
</svg>
