<svg width="1058" height="121" viewBox="0 0 1058 121" fill="none" xmlns="http://www.w3.org/2000/svg">
    <path fill-rule="evenodd" clip-rule="evenodd"
        d="M530 67.0001L530 0L528 1.51713e-05L528 67.0001L400.505 67C370.955 67 347 90.9548 347 120.505H349C349 92.0594 372.059 69 400.505 69L654 69.0001C682.719 69.0001 706 92.2813 706 121H708C708 91.1767 683.823 67.0001 654 67.0001L530 67.0001Z"
        fill="url(#paint0_linear_619_53722)" />
    <path
        d="M0.999998 120.495V120.495C0.999999 90.9506 24.9506 67 54.4951 67L1003 67.0002C1032.82 67.0002 1057 91.1768 1057 121V121"
        stroke="url(#paint1_linear_619_53722)" stroke-width="2" />
    <defs>
        <linearGradient id="paint0_linear_619_53722" x1="300.5" y1="60.2784" x2="773.5" y2="60.2784"
            gradientUnits="userSpaceOnUse">
            <stop stop-color="#099080" />
            <stop offset="0.5" stop-opacity="0.05" />
            <stop offset="1" stop-color="#099080" />
        </linearGradient>
        <linearGradient id="paint1_linear_619_53722" x1="528.03" y1="67.0001" x2="528.03" y2="96.7756"
            gradientUnits="userSpaceOnUse">
            <stop stop-color="#0D0D0D" stop-opacity="0.05" />
            <stop offset="1" stop-color="#099080" />
        </linearGradient>
    </defs>
</svg>