<svg width="58" height="58" viewBox="0 0 58 58" fill="none" xmlns="http://www.w3.org/2000/svg">
<path d="M1.8125 29C1.8125 36.2106 4.67689 43.1258 9.77553 48.2245C14.8742 53.3231 21.7894 56.1875 29 56.1875C36.2106 56.1875 43.1258 53.3231 48.2245 48.2245C53.3231 43.1258 56.1875 36.2106 56.1875 29C56.1875 21.7894 53.3231 14.8742 48.2245 9.77553C43.1258 4.67689 36.2106 1.8125 29 1.8125C21.7894 1.8125 14.8742 4.67689 9.77553 9.77553C4.67689 14.8742 1.8125 21.7894 1.8125 29Z" stroke="#0D0D0D" stroke-width="1.5" stroke-linecap="round" stroke-linejoin="round"/>
<path d="M14.4572 27.5827L27.8673 16.8551C28.1338 16.6416 28.4551 16.5077 28.7944 16.4688C29.1337 16.4299 29.477 16.4877 29.7849 16.6355C30.0927 16.7832 30.3526 17.0149 30.5345 17.3039C30.7165 17.5929 30.8131 17.9274 30.8132 18.2689V23.5614H43.5007C43.9814 23.5614 44.4424 23.7523 44.7823 24.0923C45.1222 24.4322 45.3132 24.8932 45.3132 25.3739V32.6239C45.3132 33.1046 45.1222 33.5656 44.7823 33.9055C44.4424 34.2454 43.9814 34.4364 43.5007 34.4364H30.8132V39.7289C30.8131 40.0704 30.7165 40.4049 30.5345 40.6939C30.3526 40.9828 30.0927 41.2146 29.7849 41.3623C29.477 41.5101 29.1337 41.5678 28.7944 41.529C28.4551 41.4901 28.1338 41.3562 27.8673 41.1426L14.4572 30.4151C14.245 30.245 14.0738 30.0295 13.9561 29.7843C13.8384 29.5392 13.7773 29.2708 13.7773 28.9989C13.7773 28.727 13.8384 28.4586 13.9561 28.2134C14.0738 27.9683 14.245 27.7528 14.4572 27.5827Z" stroke="#0D0D0D" stroke-width="1.5" stroke-linecap="round" stroke-linejoin="round"/>
</svg>
