<svg width="58" height="58" viewBox="0 0 58 58" fill="none" xmlns="http://www.w3.org/2000/svg">
<path d="M29.6044 39.0292C39.8815 39.0292 48.2127 30.698 48.2127 20.4208C48.2127 10.1437 39.8815 1.8125 29.6044 1.8125C19.3273 1.8125 10.9961 10.1437 10.9961 20.4208C10.9961 30.698 19.3273 39.0292 29.6044 39.0292Z" stroke="#0D0D0D" stroke-width="1.5" stroke-miterlimit="10" stroke-linecap="round" stroke-linejoin="round"/>
<path d="M56.1896 47.0026L42.6562 33.7109" stroke="#0D0D0D" stroke-width="1.5" stroke-miterlimit="10" stroke-linecap="round" stroke-linejoin="round"/>
<path d="M6.64583 9.0625C3.9875 9.0625 1.8125 11.2375 1.8125 13.8958V51.3542C1.8125 54.0125 3.9875 56.1875 6.64583 56.1875H30.8125C33.4708 56.1875 35.6458 54.0125 35.6458 51.3542V45.3125" stroke="#0D0D0D" stroke-width="1.5" stroke-miterlimit="10" stroke-linecap="round" stroke-linejoin="round"/>
<path d="M24.7734 9.0625H30.8151C33.4734 9.0625 35.6484 11.2375 35.6484 13.8958V29.6042" stroke="#0D0D0D" stroke-width="1.5" stroke-miterlimit="10" stroke-linecap="round" stroke-linejoin="round"/>
<path d="M18.2461 23.5625H26.7044" stroke="#0D0D0D" stroke-width="1.5" stroke-miterlimit="10" stroke-linecap="round" stroke-linejoin="round"/>
<path d="M19.4531 16.3125H26.7031" stroke="#0D0D0D" stroke-width="1.5" stroke-miterlimit="10" stroke-linecap="round" stroke-linejoin="round"/>
<path d="M24.2891 30.8125H26.7057" stroke="#0D0D0D" stroke-width="1.5" stroke-miterlimit="10" stroke-linecap="round" stroke-linejoin="round"/>
</svg>
