<svg width="58" height="58" viewBox="0 0 58 58" fill="none" xmlns="http://www.w3.org/2000/svg">
<path d="M46.0593 55.8371L31.1315 44.9814C30.512 44.5311 29.7659 44.2885 29 44.2885C28.2341 44.2885 27.488 44.5311 26.8685 44.9814L11.9408 55.8371C11.6706 56.0335 11.3515 56.1514 11.0186 56.1778C10.6856 56.2043 10.3519 56.1382 10.0541 55.987C9.75637 55.8357 9.50619 55.6052 9.33121 55.3207C9.15622 55.0362 9.06323 54.709 9.0625 54.375V5.4375C9.0625 4.47609 9.44442 3.55406 10.1242 2.87424C10.8041 2.19442 11.7261 1.8125 12.6875 1.8125H45.3125C46.2739 1.8125 47.1959 2.19442 47.8758 2.87424C48.5556 3.55406 48.9375 4.47609 48.9375 5.4375V54.375C48.9368 54.709 48.8438 55.0362 48.6688 55.3207C48.4938 55.6052 48.2436 55.8357 47.9459 55.987C47.6481 56.1382 47.3144 56.2043 46.9814 56.1778C46.6485 56.1514 46.3294 56.0335 46.0593 55.8371Z" stroke="#0D0D0D" stroke-width="1.5" stroke-linecap="round" stroke-linejoin="round"/>
<path d="M39.875 18.875L26.6558 32.0917C26.4877 32.2601 26.2881 32.3937 26.0683 32.4848C25.8485 32.5759 25.6129 32.6228 25.375 32.6228C25.1371 32.6228 24.9015 32.5759 24.6817 32.4848C24.4619 32.3937 24.2623 32.2601 24.0942 32.0917L19.9375 27.9375" stroke="#0D0D0D" stroke-width="1.5" stroke-linecap="round" stroke-linejoin="round"/>
</svg>
