<svg width="101" height="104" viewBox="0 0 101 104" fill="none" xmlns="http://www.w3.org/2000/svg">
<path d="M38.375 63V63.5H38.875H62.125H62.625V63V39.8V39.3H62.125H38.875H38.375V39.8V63ZM38.875 34.5H62.125C65.0467 34.5 67.4375 36.8872 67.4375 39.8V63C67.4375 65.9128 65.0467 68.3 62.125 68.3H38.875C35.9533 68.3 33.5625 65.9128 33.5625 63V39.8C33.5625 36.8872 35.9533 34.5 38.875 34.5Z" fill="white" stroke="black"/>
<path d="M81.9688 48.5008V49.0008H82.4688H88.2812C89.0398 49.0008 89.633 49.2509 90.0351 49.6522C90.4371 50.0534 90.6875 50.6447 90.6875 51.4008C90.6875 52.1568 90.4371 52.7482 90.0351 53.1493C89.633 53.5506 89.0398 53.8008 88.2812 53.8008H82.4688H81.9688V54.3008V63.0008V63.5008H82.4688H88.2812C89.0398 63.5008 89.633 63.7509 90.0351 64.1522C90.4371 64.5534 90.6875 65.1447 90.6875 65.9008C90.6875 66.6568 90.4371 67.2482 90.0351 67.6493C89.633 68.0506 89.0398 68.3008 88.2812 68.3008H82.4688H81.9688V68.8008V74.6008C81.9688 79.2536 78.4155 82.8008 73.75 82.8008H67.9375H67.4375V83.3008V89.1008C67.4375 89.8568 67.1872 90.4482 66.7851 90.8493C66.383 91.2506 65.7898 91.5008 65.0312 91.5008C64.2727 91.5008 63.6795 91.2506 63.2774 90.8493C62.8753 90.4482 62.625 89.8568 62.625 89.1008V83.3008V82.8008H62.125H53.4062H52.9062V83.3008V89.1008C52.9062 89.8568 52.6559 90.4482 52.2539 90.8493C51.8517 91.2506 51.2586 91.5008 50.5 91.5008C49.7414 91.5008 49.1483 91.2506 48.7461 90.8493C48.3441 90.4482 48.0938 89.8568 48.0938 89.1008V83.3008V82.8008H47.5938H38.875H38.375V83.3008V89.1008C38.375 89.8568 38.1247 90.4482 37.7226 90.8493C37.3205 91.2506 36.7273 91.5008 35.9688 91.5008C35.2102 91.5008 34.617 91.2506 34.2149 90.8493C33.8128 90.4482 33.5625 89.8568 33.5625 89.1008V83.3008V82.8008H33.0625H27.25C22.5845 82.8008 19.0312 79.2536 19.0312 74.6008V68.8008V68.3008H18.5312H12.7188C11.9602 68.3008 11.367 68.0506 10.9649 67.6493C10.5628 67.2482 10.3125 66.6568 10.3125 65.9008C10.3125 65.1447 10.5628 64.5534 10.9649 64.1522C11.367 63.7509 11.9602 63.5008 12.7188 63.5008H18.5312H19.0312V63.0008V54.3008V53.8008H18.5312H12.7188C11.9602 53.8008 11.367 53.5506 10.9649 53.1493C10.5628 52.7482 10.3125 52.1568 10.3125 51.4008C10.3125 50.6447 10.5628 50.0534 10.9649 49.6522C11.367 49.2509 11.9602 49.0008 12.7188 49.0008H18.5312H19.0312V48.5008V39.8008V39.3008H18.5312H12.7188C11.9602 39.3008 11.367 39.0506 10.9649 38.6493C10.5628 38.2482 10.3125 37.6568 10.3125 36.9008C10.3125 36.1447 10.5628 35.5534 10.9649 35.1522C11.367 34.7509 11.9602 34.5008 12.7188 34.5008H18.5312H19.0312V34.0008V28.2008C19.0312 23.5479 22.5845 20.0008 27.25 20.0008H33.0625H33.5625V19.5008V13.7008C33.5625 12.9447 33.8128 12.3534 34.2149 11.9522C34.617 11.5509 35.2102 11.3008 35.9688 11.3008C36.7273 11.3008 37.3205 11.5509 37.7226 11.9522C38.1247 12.3534 38.375 12.9447 38.375 13.7008V19.5008V20.0008H38.875H47.5938H48.0938V19.5008V13.7008C48.0938 12.9447 48.3441 12.3534 48.7461 11.9522C49.1483 11.5509 49.7414 11.3008 50.5 11.3008C51.2586 11.3008 51.8517 11.5509 52.2539 11.9522C52.6559 12.3534 52.9062 12.9447 52.9062 13.7008V19.5008V20.0008H53.4062H62.125H62.625V19.5008V13.7008C62.625 12.9447 62.8753 12.3534 63.2774 11.9522C63.6795 11.5509 64.2727 11.3008 65.0312 11.3008C65.7898 11.3008 66.383 11.5509 66.7851 11.9522C67.1872 12.3534 67.4375 12.9447 67.4375 13.7008V19.5008V20.0008H67.9375H73.75C78.4155 20.0008 81.9688 23.5479 81.9688 28.2008V34.0008V34.5008H82.4688H88.2812C89.0398 34.5008 89.633 34.7509 90.0351 35.1522C90.4371 35.5534 90.6875 36.1447 90.6875 36.9008C90.6875 37.6568 90.4371 38.2482 90.0351 38.6493C89.633 39.0506 89.0398 39.3008 88.2812 39.3008H82.4688H81.9688V39.8008V48.5008ZM73.75 78.0008C74.7352 78.0008 75.5952 77.6709 76.2102 77.0572C76.8253 76.4434 77.1562 75.5847 77.1562 74.6008V28.2008C77.1562 27.2168 76.8253 26.3582 76.2102 25.7443C75.5952 25.1306 74.7352 24.8008 73.75 24.8008H27.25C26.2648 24.8008 25.4048 25.1306 24.7898 25.7443C24.1747 26.3582 23.8438 27.2168 23.8438 28.2008V74.6008C23.8438 75.5847 24.1747 76.4434 24.7898 77.0572C25.4048 77.6709 26.2648 78.0008 27.25 78.0008H73.75Z" fill="white" stroke="black"/>
</svg>
