<svg width="87" height="104" viewBox="0 0 87 104" fill="none" xmlns="http://www.w3.org/2000/svg">
<path d="M40.5 7C22.32 7 3 11.2 3 19V82C3 89.8 22.32 94 40.5 94C58.68 94 78 89.8 78 82V19C78 11.2 58.68 7 40.5 7ZM75 82C75 85.7575 61.875 91 40.5 91C19.125 91 6 85.7575 6 82V65.941C6.0345 65.968 6.0795 65.992 6.114 66.019C6.4545 66.2695 6.813 66.514 7.2 66.7525C7.2615 66.79 7.329 66.826 7.3905 66.8635C7.74 67.0705 8.109 67.273 8.493 67.471L8.8065 67.633C9.249 67.852 9.7065 68.065 10.1925 68.272L10.479 68.389C10.905 68.566 11.3445 68.7376 11.7975 68.9035L12.168 69.04C12.6981 69.2281 13.2444 69.4099 13.8075 69.586L14.187 69.7C14.6775 69.85 15.177 69.9895 15.687 70.129C15.822 70.165 15.954 70.2025 16.089 70.237C16.689 70.396 17.3076 70.546 17.9445 70.687C18.0945 70.7215 18.2445 70.753 18.3945 70.786C18.9465 70.909 19.5075 71.0269 20.0775 71.14L20.4765 71.2195C21.1404 71.3464 21.816 71.467 22.503 71.581C22.6695 71.6095 22.839 71.635 23.007 71.662C23.607 71.7595 24.2235 71.8525 24.843 71.9395L25.2135 71.992C25.9245 72.0919 26.6424 72.1816 27.3675 72.2605L27.9135 72.3205C28.5786 72.3925 29.247 72.4594 29.919 72.5215L30.192 72.547C30.942 72.613 31.692 72.6685 32.442 72.7195L33.003 72.757C33.717 72.802 34.4319 72.841 35.148 72.874L35.3265 72.883C36.0915 72.916 36.8571 72.9409 37.623 72.958L38.184 72.97C38.9565 72.985 39.729 72.9955 40.5 72.9955C41.271 72.9955 42.0435 72.985 42.816 72.97L43.377 72.958C44.1441 72.94 44.9094 72.9151 45.6735 72.883L45.852 72.874C46.569 72.841 47.2839 72.802 47.997 72.757L48.558 72.7195C49.308 72.6685 50.058 72.613 50.808 72.547L51.081 72.5215C51.7551 72.4606 52.4235 72.3934 53.0865 72.3205L53.6325 72.2605C54.3576 72.1765 55.0755 72.0871 55.7865 71.992L56.157 71.9395C56.7765 71.8525 57.387 71.7595 57.993 71.662C58.161 71.635 58.3305 71.6095 58.497 71.581C59.1831 71.467 59.8584 71.3464 60.5235 71.2195L60.9225 71.14C61.4925 71.0281 62.0535 70.9099 62.6055 70.786C62.7555 70.753 62.9055 70.7215 63.0555 70.687C63.6885 70.543 64.3071 70.393 64.911 70.237C65.046 70.2025 65.178 70.165 65.313 70.129C65.826 69.9895 66.3255 69.847 66.813 69.7L67.1925 69.586C67.7565 69.4111 68.3031 69.229 68.832 69.04L69.2025 68.9035C69.6555 68.7376 70.095 68.566 70.521 68.389L70.8075 68.272C71.2905 68.065 71.751 67.852 72.1935 67.633L72.507 67.471C72.891 67.273 73.257 67.0705 73.6095 66.8635C73.671 66.826 73.7385 66.79 73.8 66.7525C74.187 66.514 74.55 66.2695 74.886 66.019C74.9205 65.992 74.9655 65.968 75 65.941V82ZM75 61C75 64.7575 61.875 70 40.5 70C19.125 70 6 64.7575 6 61V44.941C6.0345 44.968 6.0795 44.992 6.114 45.019C6.4545 45.2695 6.813 45.514 7.2 45.7525C7.2615 45.79 7.329 45.826 7.3905 45.8635C7.74 46.0705 8.109 46.273 8.493 46.471L8.8065 46.633C9.249 46.852 9.7065 47.065 10.1925 47.272L10.479 47.389C10.905 47.566 11.3445 47.7376 11.7975 47.9035L12.168 48.04C12.6981 48.2281 13.2444 48.4099 13.8075 48.586L14.187 48.7C14.6775 48.85 15.177 48.9895 15.687 49.129C15.822 49.165 15.954 49.2025 16.089 49.237C16.689 49.396 17.3076 49.546 17.9445 49.687C18.0945 49.7215 18.2445 49.753 18.3945 49.786C18.9465 49.909 19.5075 50.0269 20.0775 50.14L20.4765 50.2195C21.1404 50.3476 21.816 50.4679 22.503 50.581C22.6695 50.6095 22.839 50.635 23.007 50.662C23.607 50.7595 24.2235 50.8525 24.843 50.9395L25.2135 50.992C25.9245 51.0919 26.6424 51.1816 27.3675 51.2605L27.9135 51.3205C28.5786 51.3925 29.247 51.4594 29.919 51.5215L30.192 51.547C30.942 51.613 31.692 51.6685 32.442 51.7195L33.003 51.757C33.717 51.802 34.4319 51.841 35.148 51.874L35.3265 51.883C36.0915 51.916 36.8571 51.9409 37.623 51.958L38.184 51.97C38.9565 51.985 39.729 51.9955 40.5 51.9955C41.271 51.9955 42.0435 51.985 42.816 51.97L43.377 51.958C44.1441 51.94 44.9094 51.9151 45.6735 51.883L45.852 51.874C46.569 51.841 47.2839 51.802 47.997 51.757L48.558 51.7195C49.308 51.6685 50.058 51.613 50.808 51.547L51.081 51.5215C51.7551 51.4606 52.4235 51.3934 53.0865 51.3205L53.6325 51.2605C54.3576 51.1765 55.0755 51.0871 55.7865 50.992L56.157 50.9395C56.7765 50.8525 57.387 50.7595 57.993 50.662C58.161 50.635 58.3305 50.6095 58.497 50.581C59.1831 50.467 59.8584 50.3464 60.5235 50.2195L60.9225 50.14C61.4925 50.0269 62.0535 49.909 62.6055 49.786C62.7555 49.753 62.9055 49.7215 63.0555 49.687C63.6885 49.543 64.3071 49.393 64.911 49.237C65.046 49.2025 65.178 49.165 65.313 49.129C65.826 48.9895 66.3255 48.847 66.813 48.7L67.1925 48.586C67.7565 48.4099 68.3031 48.2281 68.832 48.04L69.2025 47.9035C69.6555 47.7376 70.095 47.566 70.521 47.389L70.8075 47.272C71.2905 47.065 71.751 46.852 72.1935 46.633L72.507 46.471C72.891 46.273 73.257 46.0705 73.6095 45.8635C73.671 45.826 73.7385 45.79 73.8 45.7525C74.187 45.514 74.55 45.2695 74.886 45.019C74.9205 44.992 74.9655 44.968 75 44.941V61ZM75 40C75 43.75 61.875 49 40.5 49C19.125 49 6 43.75 6 40V23.941C6.0345 23.968 6.0795 23.992 6.114 24.019C6.4545 24.2695 6.813 24.514 7.2 24.7525C7.2615 24.79 7.329 24.826 7.3905 24.8635C7.74 25.0705 8.109 25.273 8.493 25.4635L8.8065 25.6255C9.249 25.8445 9.7065 26.0575 10.1925 26.2645L10.479 26.3815C10.905 26.5585 11.3445 26.7301 11.7975 26.896L12.168 27.0325C12.6981 27.2206 13.2444 27.4024 13.8075 27.5785L14.187 27.6925C14.6775 27.8425 15.177 27.982 15.687 28.1215C15.822 28.1575 15.954 28.195 16.089 28.2295C16.689 28.3885 17.3076 28.5385 17.9445 28.6795C18.0945 28.714 18.2445 28.7455 18.3945 28.7785C18.9465 28.9015 19.5075 29.0194 20.0775 29.1325L20.4765 29.212C21.1404 29.3401 21.816 29.4604 22.503 29.5735C22.6695 29.602 22.839 29.6275 23.007 29.6545C23.607 29.752 24.2235 29.845 24.843 29.932L25.2135 29.9845C25.9245 30.0844 26.6424 30.1741 27.3675 30.253L27.9135 30.313C28.5786 30.385 29.247 30.4519 29.919 30.514L30.192 30.5395C30.942 30.6055 31.692 30.661 32.442 30.712L33.003 30.7495C33.717 30.7945 34.4319 30.8335 35.148 30.8665L35.3265 30.8755C36.0915 30.9085 36.8571 30.9334 37.623 30.9505L38.184 30.9625C38.9565 30.9775 39.729 30.988 40.5 30.988C41.271 30.988 42.0435 30.9775 42.816 30.9625L43.377 30.9505C44.1441 30.9325 44.9094 30.9076 45.6735 30.8755L45.852 30.8665C46.569 30.8335 47.2839 30.7945 47.997 30.7495L48.558 30.712C49.308 30.661 50.058 30.6055 50.808 30.5395L51.081 30.514C51.7551 30.4531 52.4235 30.3859 53.0865 30.313L53.6325 30.253C54.3576 30.169 55.0755 30.0796 55.7865 29.9845L56.157 29.932C56.7765 29.845 57.387 29.752 57.993 29.6545C58.161 29.6275 58.3305 29.602 58.497 29.5735C59.1831 29.4595 59.8584 29.3389 60.5235 29.212L60.9225 29.1325C61.4925 29.0194 62.0535 28.9015 62.6055 28.7785C62.7555 28.7455 62.9055 28.714 63.0555 28.6795C63.6885 28.5355 64.3071 28.3855 64.911 28.2295C65.046 28.195 65.178 28.1575 65.313 28.1215C65.826 27.982 66.3255 27.8395 66.813 27.6925L67.1925 27.5785C67.7565 27.4024 68.3031 27.2206 68.832 27.0325L69.2025 26.896C69.6555 26.7301 70.095 26.5585 70.521 26.3815L70.8075 26.2645C71.2905 26.0575 71.751 25.8445 72.1935 25.6255L72.507 25.4635C72.891 25.2655 73.257 25.063 73.6095 24.8635C73.671 24.826 73.7385 24.79 73.8 24.7525C74.187 24.514 74.55 24.2695 74.886 24.019C74.9205 23.992 74.9655 23.968 75 23.941V40ZM40.5 28C19.125 28 6 22.7575 6 19C6 15.2425 19.125 10 40.5 10C61.875 10 75 15.2425 75 19C75 22.7575 61.875 28 40.5 28Z" fill="white"/>
<circle cx="66" cy="79" r="18" fill="black"/>
<circle cx="66" cy="79" r="14.75" stroke="white" stroke-width="2.5"/>
<path d="M62 78.83L64.83 81.66L70.5 76" stroke="white" stroke-width="2.5" stroke-linecap="round" stroke-linejoin="round"/>
</svg>
