<svg width="93" height="104" viewBox="0 0 93 104" fill="none" xmlns="http://www.w3.org/2000/svg">
<path d="M26.28 59.4415C22.2528 59.4415 18.2407 59.4415 14.2135 59.4415C11.7491 59.4415 10.3666 60.854 10.3516 63.2883C10.3516 68.5928 10.3516 73.8973 10.3516 79.2018C10.3516 81.5159 11.7491 82.9735 14.0632 82.9735C22.1927 82.9885 30.3373 82.9885 38.4668 82.9735C40.6457 82.9735 42.1784 81.4408 42.1634 79.2318C42.1183 73.8823 42.1634 68.5327 42.1484 63.1832C42.1484 62.8526 42.1484 62.522 42.0732 62.2064C41.6976 60.4633 40.3301 59.4415 38.3316 59.4264C34.3044 59.4264 30.2922 59.4264 26.265 59.4264L26.28 59.4415ZM21.0357 37.5924C22.6435 37.3069 24.1312 36.9763 25.6339 36.796C26.265 36.7209 26.6256 36.5405 26.9412 35.9996C28.2185 33.8658 29.646 31.8522 31.5544 30.2142C33.4027 28.6214 35.3562 27.254 37.5952 26.2922C41.5022 24.6393 45.5595 24.2786 49.752 24.8346C55.6274 25.6311 60.5563 28.2006 64.5534 32.5434C66.7173 34.9026 68.0997 37.7577 69.2418 40.703C70.2936 43.4379 70.6994 46.323 70.7445 49.2533C70.8046 53.7162 70.1584 58.059 68.791 62.3266C67.6339 65.918 66.3566 69.4493 64.6886 72.8304C64.5534 73.1009 64.3881 73.3563 64.2529 73.6268C63.9072 74.3331 63.5015 75.0093 63.2761 75.7456C63.0357 76.557 63.4865 77.2934 64.2529 77.6841C65.6353 78.3753 66.4468 78.1499 67.2582 76.7824C67.9194 75.6705 68.5656 74.5585 69.1516 73.4014C71.3004 69.1037 72.6979 64.5356 73.7799 59.8772C74.3659 57.3527 74.6364 54.7381 74.8618 52.1534C75.2525 47.45 75.1774 42.7917 73.269 38.3287C72.0518 35.4736 70.7144 32.7237 68.5956 30.4096C67.0929 28.7566 65.5602 27.1788 63.7269 25.8565C60.8267 23.7677 57.6861 22.25 54.23 21.3334C47.7684 19.6353 41.4722 20.1913 35.3562 22.806C31.7047 24.3688 28.534 26.713 25.9645 29.7184C24.582 31.3262 23.5301 33.2196 22.3881 35.0228C21.8621 35.8493 21.4714 36.7509 21.0357 37.5924ZM34.7552 39.5008C35.2661 38.9599 35.807 38.3588 36.348 37.7727C38.9477 34.9778 42.1634 33.415 45.9802 33.2046C51.7806 32.889 56.3788 35.143 59.6847 39.9066C61.1122 41.9652 61.8636 44.3395 61.9538 46.849C62.1641 52.6042 61.3827 58.2093 59.279 63.6189C57.6711 67.7513 55.7176 71.6733 53.0128 75.2046C51.9609 76.5871 50.8639 77.9245 49.7369 79.2468C49.0457 80.0733 48.8053 80.9299 49.1809 81.6662C49.9172 83.1238 51.6453 83.4393 52.7723 82.2823C53.5988 81.4408 54.4253 80.5842 55.1015 79.6225C56.6944 77.3985 58.2872 75.1746 59.6997 72.8304C61.8636 69.239 63.2611 65.2869 64.4933 61.3048C65.6203 57.6683 66.0861 53.8966 66.2665 50.1098C66.4618 46.1577 65.9359 42.386 63.9673 38.8246C61.6833 34.6922 58.4675 31.747 54.0346 30.1391C49.3763 28.4411 44.6879 28.4711 40.0446 30.1391C38.6471 30.635 37.3548 31.4915 36.0324 32.2128C33.7333 33.46 32.3659 35.6089 30.9083 37.5023C32.2006 38.1785 33.4629 38.8246 34.7552 39.5008ZM40.3451 49.103C40.6307 48.0361 40.8861 46.9692 41.2167 45.9173C42.7945 40.7931 48.2943 40.2822 51.2246 42.7617C52.9527 44.2193 53.4335 46.2479 53.3584 48.4268C53.148 54.4375 51.9459 60.2078 49.0006 65.5273C47.8736 67.556 46.7766 69.5996 45.1087 71.2676C44.6579 71.7184 44.4775 72.2293 44.4926 72.8905C44.5376 74.5134 44.5076 76.1513 44.5076 77.7742C44.5076 77.9696 44.5376 78.1499 44.5527 78.4053C45.0035 78.0146 45.4242 77.7141 45.7548 77.3384C47.2875 75.5052 48.8804 73.717 50.2929 71.8086C52.3065 69.0586 53.719 65.9631 54.9813 62.8375C56.7995 58.3145 57.5359 53.5359 57.7913 48.6822C57.9716 45.1509 56.8596 42.1756 54.1398 39.8314C52.6972 38.5992 51.1044 37.7277 49.226 37.367C45.2289 36.6007 41.0364 37.938 38.6621 41.274C38.0761 42.0855 37.8807 42.7166 38.4968 43.6633C39.5487 45.3012 39.9544 47.2096 40.3602 49.118L40.3451 49.103ZM38.0761 57.0822C38.0761 56.8268 38.1061 56.6164 38.1061 56.406C38.1061 54.4225 38.1362 52.454 38.1061 50.4704C38.046 47.8558 37.3548 45.4815 35.5967 43.4228C34.124 41.7098 32.426 40.4024 30.2772 39.6511C23.8908 37.4121 17.0385 40.9434 15.0099 47.0293C14.4389 48.7273 14.3487 50.5005 14.4389 52.2737C14.514 53.7012 15.8213 54.7831 17.309 54.7381C18.7215 54.693 19.7584 53.6561 19.8185 52.1835C19.8335 51.7026 19.8185 51.2068 19.8185 50.7259C19.8185 48.6372 20.5398 46.9391 22.2228 45.5867C26.0847 42.4912 31.284 44.7602 32.441 48.6973C32.6364 49.3735 32.6965 50.1098 32.7115 50.8311C32.7416 52.6644 32.7115 54.4976 32.7115 56.3459C32.7115 56.5864 32.7416 56.8418 32.7566 57.0973H38.0761V57.0822ZM44.4324 64.1749L44.6128 64.2801C45.4242 62.7624 46.416 61.3198 46.972 59.7119C47.7233 57.5481 48.2342 55.2941 48.655 53.04C48.9856 51.2669 49.1058 49.4486 49.1208 47.6454C49.1359 46.338 48.3845 45.752 47.0772 45.6919C45.5595 45.6168 44.733 46.308 44.6729 47.8107C44.5376 51.3871 44.0418 54.8733 42.7645 58.2393C42.6893 58.4347 42.7945 58.7803 42.9448 58.9456C43.6511 59.7871 44.162 60.7037 44.2972 61.8007C44.3874 62.5821 44.4024 63.3785 44.4475 64.1599L44.4324 64.1749Z" fill="white"/>
<path d="M83.6496 46.8492C83.4843 47.856 82.9133 49.4037 81.8915 49.569C80.6292 49.7644 79.7426 49.2535 79.4421 47.9612C79.1866 46.8792 79.1416 45.7522 78.9913 44.6552C78.826 43.393 78.7809 42.0857 78.4503 40.8685C77.4285 37.1268 76.1663 33.4452 73.8371 30.2746C72.4546 28.3962 70.9369 26.5779 69.2539 24.9701C66.5491 22.3704 63.3934 20.3418 59.9222 18.8692C53.8364 16.2996 47.5251 15.6234 41.0184 16.8105C37.6825 17.4116 34.4818 18.4484 31.5515 20.1465C29.9286 21.0781 28.3959 22.1751 26.8331 23.2119C24.9848 24.4291 23.6023 26.1121 22.1147 27.72C19.9508 30.0642 18.4181 32.769 17.3211 35.7293C16.69 37.4574 16.1941 39.2306 15.6231 40.9887C15.5479 41.2291 15.4428 41.4696 15.2925 41.6649C13.7147 43.7536 12.7379 46.0828 12.4374 48.6824C12.2721 50.1701 12.1819 51.6578 12.0617 53.1604C10.8445 53.2807 9.85277 52.4542 10.0181 51.0266C10.544 46.3232 10.4538 41.5146 12.0918 36.9916C13.2639 33.7307 14.6313 30.5 16.7501 27.705C18.1476 25.8567 19.6352 24.0534 21.2882 22.4456C24.0982 19.6806 27.2989 17.4116 30.8603 15.6985C36.2249 13.0989 41.905 11.8366 47.9007 12.0169C51.6424 12.1371 55.2789 12.7983 58.8253 14.0155C62.3115 15.2026 65.6475 16.6903 68.6378 18.8692C69.9301 19.8008 71.1773 20.8076 72.3945 21.8295C74.6936 23.7679 76.3916 26.1873 78.0296 28.6817C80.4489 32.3483 81.651 36.4506 82.7781 40.628C83.319 42.6567 83.3791 43.0925 83.6346 45.3164" fill="white"/>
<path d="M26.2767 59.4414C30.3039 59.4414 34.3161 59.4414 38.3433 59.4414C40.3418 59.4414 41.7093 60.4783 42.085 62.2214C42.1451 62.5369 42.1601 62.8675 42.1601 63.1981C42.1601 68.5477 42.13 73.8972 42.1751 79.2468C42.1901 81.4557 40.6574 82.9885 38.4785 82.9885C30.349 83.0035 22.2044 83.0035 14.0749 82.9885C11.7608 82.9885 10.3633 81.5309 10.3633 79.2167C10.3633 73.9123 10.3633 68.6078 10.3633 63.3033C10.3633 60.869 11.7608 59.4564 14.2252 59.4564C18.2524 59.4564 22.2645 59.4564 26.2917 59.4564L26.2767 59.4414ZM26.3669 76.2865C26.9529 76.2865 27.5239 76.3015 28.11 76.2865C28.8313 76.2564 29.1168 75.9108 28.9966 75.2046C28.8914 74.6035 28.8012 74.0175 28.651 73.4314C28.5007 72.7852 28.5758 72.2743 29.0567 71.7183C30.3039 70.2457 30.1386 68.2021 28.7561 66.9548C27.4188 65.7527 25.1948 65.7978 23.9325 67.06C22.6102 68.3674 22.5951 70.3208 23.9476 71.8085C24.2781 72.1842 24.3683 72.5448 24.2481 73.0106C24.0678 73.7019 23.9175 74.4081 23.7823 75.1144C23.617 75.9108 23.9025 76.2564 24.7139 76.2865C25.2699 76.2865 25.8259 76.2865 26.3819 76.2865H26.3669Z" fill="white"/>
<path d="M21.0312 37.5924C21.467 36.7509 21.8577 35.8493 22.3837 35.0228C23.5257 33.2196 24.5926 31.3413 25.9601 29.7184C28.5296 26.698 31.7003 24.3688 35.3518 22.806C41.4678 20.1913 47.764 19.6353 54.2256 21.3334C57.6817 22.235 60.8223 23.7677 63.7225 25.8565C65.5558 27.1638 67.0885 28.7566 68.5912 30.4096C70.71 32.7237 72.0474 35.4736 73.2646 38.3287C75.173 42.7917 75.2481 47.45 74.8574 52.1534C74.647 54.7381 74.3615 57.3527 73.7755 59.8772C72.6936 64.5205 71.2961 69.1037 69.1472 73.4014C68.5762 74.5585 67.915 75.6705 67.2538 76.7824C66.4424 78.1499 65.6159 78.3753 64.2485 77.6841C63.4821 77.2934 63.0313 76.557 63.2717 75.7456C63.4971 75.0093 63.9028 74.3331 64.2485 73.6268C64.3837 73.3563 64.549 73.1009 64.6842 72.8304C66.3522 69.4493 67.6295 65.918 68.7866 62.3266C70.154 58.059 70.8002 53.7162 70.7401 49.2533C70.695 46.323 70.2893 43.4379 69.2374 40.703C68.1104 37.7577 66.7279 34.9026 64.549 32.5434C60.5519 28.2006 55.623 25.6311 49.7476 24.8346C45.5551 24.2636 41.5128 24.6243 37.5908 26.2922C35.3368 27.2389 33.3833 28.6214 31.55 30.2142C29.6266 31.8672 28.2141 33.8808 26.9368 35.9996C26.6212 36.5255 26.2606 36.7209 25.6295 36.796C24.1268 36.9763 22.6241 37.3069 21.0312 37.5924Z" fill="white"/>
<path d="M34.7492 39.4995C33.4719 38.8383 32.1947 38.1771 30.9023 37.5009C32.3599 35.5925 33.7424 33.4587 36.0265 32.2114C37.3489 31.4901 38.6261 30.6486 40.0387 30.1377C44.682 28.4848 49.3703 28.4547 54.0287 30.1377C58.4466 31.7456 61.6773 34.6909 63.9614 38.8232C65.9299 42.3846 66.4559 46.1564 66.2605 50.1084C66.0802 53.8952 65.5993 57.6669 64.4873 61.3034C63.2551 65.2855 61.8576 69.2376 59.6938 72.829C58.2813 75.1582 56.6884 77.3972 55.0956 79.6211C54.4194 80.5829 53.5779 81.4394 52.7664 82.2809C51.6394 83.438 49.9113 83.1224 49.175 81.6648C48.7993 80.9134 49.0397 80.0719 49.731 79.2455C50.843 77.9231 51.955 76.5707 53.0068 75.2033C55.7117 71.6719 57.6652 67.765 59.273 63.6175C61.3768 58.1929 62.1582 52.6029 61.9478 46.8476C61.8576 44.3381 61.1063 41.9639 59.6788 39.9052C56.3728 35.1417 51.7746 32.8876 45.9743 33.2032C42.1575 33.4136 38.9567 34.9764 36.3421 37.7714C35.8011 38.3574 35.2451 38.9435 34.7492 39.4995Z" fill="white"/>
<path d="M40.3422 49.1029C39.9515 47.1945 39.5458 45.2861 38.4789 43.6481C37.8628 42.6864 38.0732 42.0703 38.6442 41.2589C41.0185 37.9079 45.2109 36.5855 49.2081 37.3519C51.0864 37.7125 52.6793 38.5841 54.1219 39.8163C56.8417 42.1605 57.9537 45.1358 57.7734 48.6671C57.5179 53.5208 56.7816 58.2993 54.9634 62.8224C53.7011 65.963 52.2886 69.0585 50.275 71.7934C48.8625 73.7169 47.2696 75.5051 45.7369 77.3233C45.4213 77.699 44.9855 77.9995 44.5347 78.3902C44.5197 78.1498 44.4897 77.9544 44.4897 77.7591C44.4897 76.1362 44.5197 74.4982 44.4746 72.8753C44.4596 72.2142 44.6399 71.7033 45.0907 71.2525C46.7587 69.5845 47.8557 67.5408 48.9827 65.5122C51.9279 60.1927 53.1301 54.4224 53.3405 48.4116C53.4156 46.2328 52.9347 44.2041 51.2067 42.7465C48.2764 40.2671 42.7766 40.778 41.1988 45.9022C40.8682 46.954 40.6127 48.036 40.3272 49.0879L40.3422 49.1029Z" fill="white"/>
<path d="M38.0718 57.0843H32.7523C32.7523 56.8289 32.7072 56.5734 32.7072 56.333C32.7072 54.4997 32.7223 52.6514 32.7072 50.8181C32.7072 50.1119 32.6471 49.3605 32.4368 48.6843C31.2947 44.7473 26.0804 42.4782 22.2185 45.5738C20.5355 46.9262 19.8142 48.6242 19.8142 50.7129C19.8142 51.1938 19.8142 51.6897 19.8142 52.1705C19.7541 53.6432 18.7323 54.695 17.3047 54.7251C15.802 54.7702 14.5097 53.7033 14.4346 52.2607C14.3294 50.4875 14.4346 48.7294 15.0056 47.0163C17.0342 40.9305 23.8865 37.3991 30.2729 39.6381C32.4217 40.3895 34.1198 41.6968 35.5924 43.4099C37.3656 45.4535 38.0568 47.8278 38.1019 50.4575C38.147 52.426 38.1019 54.4095 38.1019 56.3931C38.1019 56.6035 38.0869 56.7988 38.0718 57.0693V57.0843Z" fill="white"/>
<path d="M44.4305 64.1766C44.3855 63.3952 44.3704 62.5988 44.2803 61.8174C44.145 60.7205 43.6341 59.8038 42.9279 58.9623C42.7776 58.797 42.6724 58.4364 42.7475 58.2561C44.0248 54.89 44.5207 51.3888 44.6559 47.8274C44.716 46.3247 45.5576 45.6335 47.0602 45.7086C48.3676 45.7688 49.1339 46.3548 49.1039 47.6621C49.0738 49.4654 48.9536 51.2836 48.6381 53.0568C48.2173 55.3108 47.7064 57.5648 46.955 59.7287C46.3991 61.3366 45.3923 62.7791 44.5958 64.2969L44.4155 64.1917L44.4305 64.1766Z" fill="white"/>
<path d="M26.3646 76.2866C25.8086 76.2866 25.2526 76.2866 24.6966 76.2866C23.8852 76.2716 23.6147 75.9109 23.765 75.1145C23.9002 74.4082 24.0505 73.702 24.2308 73.0107C24.351 72.5449 24.2759 72.1692 23.9303 71.8086C22.5778 70.3209 22.5778 68.3674 23.9152 67.0601C25.1775 65.8129 27.4165 65.7678 28.7389 66.9549C30.1213 68.2021 30.2866 70.2458 29.0394 71.7184C28.5736 72.2744 28.4834 72.7853 28.6337 73.4315C28.7689 74.0175 28.8741 74.6186 28.9793 75.2046C29.0995 75.9109 28.814 76.2716 28.0927 76.2866C27.5067 76.3016 26.9356 76.2866 26.3496 76.2866H26.3646Z" fill="black"/>
</svg>
