<svg width="1259" height="105" viewBox="0 0 1259 105" fill="none" xmlns="http://www.w3.org/2000/svg">
<path d="M0.00800006 2.03199H13.112L35.624 69.12H36.072L58.808 2.03199H71.912L43.24 81.888L28.456 82L0.00800006 2.03199ZM122.521 64.864C119.273 76.848 109.417 83.456 96.0891 83.456C78.8411 83.456 67.3051 71.024 67.3051 52.768C67.3051 35.296 79.4011 22.64 95.9771 22.64C116.025 22.64 123.305 38.432 123.417 54.112V56.24H78.3931C79.2891 67.328 86.2331 74.048 95.9771 74.048C103.145 74.048 109.193 71.248 111.209 64.864H122.521ZM78.5051 47.616H111.993C111.097 38.432 105.945 31.824 95.9771 31.824C86.1211 31.824 79.8491 38.208 78.5051 47.616ZM144.74 24.096V35.296C147.764 27.008 153.588 23.76 162.1 23.76V34.624C161.54 34.624 158.964 34.736 157.284 35.184C151.124 36.192 144.852 39.216 144.852 55.12V82H133.316V24.096H144.74ZM181.485 14.016H169.389V2.03199H181.485V14.016ZM169.165 82V24.096H180.701V82H169.165ZM196.9 18.72C196.9 9.648 201.156 2.03199 212.58 2.03199H219.076V11.328H215.604C210.9 11.328 208.324 12.896 208.324 19.28V24.096H218.068V33.28H208.324V82H196.9V33.28H188.948V24.096H196.9V18.72ZM228.148 82V24.096H239.684V82H228.148ZM228.372 14.016V2.03199H240.468V14.016H228.372ZM252.123 41.68C253.467 32.832 260.859 22.528 275.979 22.528C296.251 22.528 299.835 35.184 299.835 45.936V69.456C299.835 73.824 300.171 78.864 300.731 82H288.747C288.523 79.536 288.523 77.184 288.523 74.384V71.92H288.411C286.731 76.512 281.915 83.456 269.595 83.456C256.155 83.456 249.323 74.944 249.323 66.208C249.323 49.968 269.483 49.072 277.995 47.616C285.499 46.384 288.411 44.592 288.411 39.776C288.411 34.96 283.931 31.824 276.203 31.824C269.595 31.824 264.667 35.632 263.323 41.68H252.123ZM260.747 65.984C260.747 71.024 265.227 74.384 272.171 74.384C280.459 74.384 288.635 69.12 288.635 55.12V48.064C287.403 51.536 284.603 54.784 273.515 56.688C265.339 58.256 260.747 60.608 260.747 65.984ZM343.391 22.64C359.519 22.64 370.047 34.736 370.047 52.88C370.047 71.024 359.407 83.344 343.279 83.344C333.087 83.344 326.255 76.736 324.127 71.248H324.015V82H312.367V2.03199H324.015V35.184H324.127C326.143 29.472 332.975 22.64 343.391 22.64ZM323.343 52.88C323.343 63.856 328.943 73.824 340.927 73.824C352.575 73.824 358.511 64.864 358.511 52.88C358.511 41.008 352.351 32.16 340.927 32.16C329.055 32.16 323.343 42.128 323.343 52.88ZM379.497 2.03199H391.033V82H379.497V2.03199ZM455.603 64.864C452.355 76.848 442.499 83.456 429.171 83.456C411.923 83.456 400.387 71.024 400.387 52.768C400.387 35.296 412.483 22.64 429.059 22.64C449.107 22.64 456.387 38.432 456.499 54.112V56.24H411.475C412.371 67.328 419.315 74.048 429.059 74.048C436.227 74.048 442.275 71.248 444.291 64.864H455.603ZM411.587 47.616H445.075C444.179 38.432 439.027 31.824 429.059 31.824C419.203 31.824 412.931 38.208 411.587 47.616ZM564.69 57.92C561.33 71.92 548.45 83.456 528.178 83.456C502.53 83.456 487.522 65.2 487.522 42.016C487.522 19.056 502.642 0.575994 528.29 0.575994C548.338 0.575994 559.762 11.104 564.69 26.112H552.594C548.338 16.256 540.946 10.768 528.29 10.768C509.81 10.768 499.618 24.992 499.618 42.016C499.618 59.04 509.698 73.264 528.29 73.264C541.394 73.264 549.458 66.88 552.706 57.92H564.69ZM602.03 83.456C584.67 83.456 572.574 70.688 572.574 53.104C572.574 35.52 584.67 22.64 602.03 22.64C619.39 22.64 631.374 35.52 631.374 53.104C631.374 70.688 619.39 83.456 602.03 83.456ZM583.998 53.104C583.998 64.528 591.166 73.936 602.03 73.936C612.782 73.936 620.062 64.528 620.062 53.104C620.062 41.568 612.782 32.16 602.03 32.16C591.166 32.16 583.998 41.568 583.998 53.104ZM640.772 82V24.096H652.196V33.84C653.54 28.464 659.14 22.64 667.092 22.64C676.052 22.64 681.428 26.224 684.116 33.952C687.588 26.448 692.628 22.64 700.58 22.64C714.804 22.64 720.852 32.608 720.852 45.152V82H709.428V47.056C709.428 37.424 705.956 32.496 699.012 32.496C691.844 32.496 686.468 39.664 686.468 53.776V82H675.156V47.056C675.156 37.424 672.804 32.496 664.852 32.496C654.996 32.496 652.308 42.576 652.308 54.336V82H640.772ZM764.411 22.64C780.539 22.64 791.067 34.736 791.067 52.88C791.067 71.024 780.427 83.344 764.299 83.344C754.107 83.344 747.275 76.736 745.147 71.248H745.035V104.4H733.387V24.096H745.035V35.184H745.147C747.163 29.472 753.995 22.64 764.411 22.64ZM744.363 52.88C744.363 63.856 749.963 73.824 761.947 73.824C773.595 73.824 779.531 64.864 779.531 52.88C779.531 41.008 773.371 32.16 761.947 32.16C750.075 32.16 744.363 42.128 744.363 52.88ZM800.069 60.944V24.096H811.493V59.04C811.493 68.672 815.189 73.6 823.141 73.6C831.429 73.6 838.149 66.544 838.149 51.76V24.096H849.685V82H838.261V71.472C835.237 78.08 829.861 83.456 820.901 83.456C805.781 83.456 800.069 73.488 800.069 60.944ZM876.832 63.968C876.832 69.568 879.184 72.704 884.224 72.704H888.144V82.112H882.544C870.224 82.112 865.52 74.944 865.52 65.088V33.28H856.672V24.096H865.52V10.656L876.832 5.616V24.096H888.032V33.28H876.832V63.968ZM949.002 64.864C945.754 76.848 935.898 83.456 922.57 83.456C905.322 83.456 893.786 71.024 893.786 52.768C893.786 35.296 905.882 22.64 922.458 22.64C942.506 22.64 949.786 38.432 949.898 54.112V56.24H904.874C905.77 67.328 912.714 74.048 922.458 74.048C929.626 74.048 935.674 71.248 937.69 64.864H949.002ZM904.986 47.616H938.474C937.578 38.432 932.426 31.824 922.458 31.824C912.602 31.824 906.33 38.208 904.986 47.616ZM987.642 18.72C987.642 9.648 991.898 2.03199 1003.32 2.03199H1009.82V11.328H1006.35C1001.64 11.328 999.066 12.896 999.066 19.28V24.096H1008.81V33.28H999.066V82H987.642V33.28H979.69V24.096H987.642V18.72ZM1041.18 83.456C1023.82 83.456 1011.72 70.688 1011.72 53.104C1011.72 35.52 1023.82 22.64 1041.18 22.64C1058.54 22.64 1070.52 35.52 1070.52 53.104C1070.52 70.688 1058.54 83.456 1041.18 83.456ZM1023.15 53.104C1023.15 64.528 1030.32 73.936 1041.18 73.936C1051.93 73.936 1059.21 64.528 1059.21 53.104C1059.21 41.568 1051.93 32.16 1041.18 32.16C1030.32 32.16 1023.15 41.568 1023.15 53.104ZM1091.35 24.096V35.296C1094.37 27.008 1100.19 23.76 1108.71 23.76V34.624C1108.15 34.624 1105.57 34.736 1103.89 35.184C1097.73 36.192 1091.46 39.216 1091.46 55.12V82H1079.92V24.096H1091.35ZM1148.51 82H1135.96L1165.53 2.03199H1180.65L1210.22 82H1197.56L1189.39 59.376H1156.8L1148.51 82ZM1160.27 49.632H1185.92L1173.15 13.008H1172.92L1160.27 49.632ZM1219.33 2.03199H1231.42V82H1219.33V2.03199ZM1245.4 68.112H1258.5V82H1245.4V68.112Z" fill="url(#paint0_linear_619_61718)"/>
<defs>
<linearGradient id="paint0_linear_619_61718" x1="74.736" y1="-0.4" x2="162.596" y2="291.558" gradientUnits="userSpaceOnUse">
<stop/>
<stop offset="1" stop-color="#8B8B8B"/>
</linearGradient>
</defs>
</svg>
